<?xml version="1.0" encoding="utf-8"?>
<!DOCTYPE svg PUBLIC "-//W3C//DTD SVG 1.0//EN" "http://www.w3.org/TR/2001/REC-SVG-20010904/DTD/svg10.dtd">
<svg version="1.0" xmlns="http://www.w3.org/2000/svg" width="710px" height="210px" viewBox="0 0 710 210" preserveAspectRatio="xMidYMid meet">
 <g fill="black">
  <path d="M51 149.50 l0 -41.50 -13.50 0 -13.50 0 0 -42 0 -42 14 0 14 0 0 41.50 0 41.50 13.50 0 13.50 0 0 -41.50 0 -41.50 14 0 14 0 0 41.50 0 41.50 13.50 0 13.50 0 0 -41.50 0 -41.50 14 0 14 0 0 41.50 0 41.50 13.50 0 13.50 0 0 -41.50 0 -41.50 14 0 14 0 0 41.50 0 41.50 13.50 0 13.50 0 0 -41.50 0 -41.50 14 0 14 0 0 41.50 0 41.50 13.50 0 13.50 0 0 42 0 42 -14 0 -14 0 0 -41.50 0 -41.50 -13 0 -13 0 0 41.50 0 41.50 -14 0 -14 0 0 -41.50 0 -41.50 -14 0 -14 0 0 41.50 0 41.50 -14 0 -14 0 0 -41.50 0 -41.50 -13 0 -13 0 0 41.50 0 41.50 -14 0 -14 0 0 -41.50 0 -41.50 -14 0 -14 0 0 41.50 0 41.50 -14 0 -14 0 0 -41.50z"/>
  <path d="M327 149.50 l0 -41.50 -13.50 0 -13.50 0 0 -42 0 -42 14 0 14 0 0 41.50 0 41.50 13 0 13 0 0 -41.50 0 -41.50 14 0 14 0 0 41.50 0 41.50 14 0 14 0 0 -41.50 0 -41.50 14 0 14 0 0 41.50 0 41.50 13.50 0 13.50 0 0 -41.50 0 -41.50 14 0 14 0 0 41.50 0 41.50 13.50 0 13.50 0 0 -41.50 0 -41.50 14 0 14 0 0 41.50 0 41.50 13.50 0 13.50 0 0 -41.50 0 -41.50 14 0 14 0 0 41.50 0 41.50 13.50 0 13.50 0 0 -41.50 0 -41.50 14 0 14 0 0 41.50 0 41.50 14 0 14 0 0 42 0 42 -14 0 -14 0 0 -41.50 0 -41.50 -14 0 -14 0 0 41.50 0 41.50 -14 0 -14 0 0 -41.50 0 -41.50 -13.50 0 -13.50 0 0 41.50 0 41.50 -14 0 -14 0 0 -41.50 0 -41.50 -13.50 0 -13.50 0 0 41.50 0 41.50 -14 0 -14 0 0 -41.50 0 -41.50 -13.50 0 -13.50 0 0 41.50 0 41.50 -14 0 -14 0 0 -41.50 0 -41.50 -13.50 0 -13.50 0 0 41.50 0 41.50 -14 0 -14 0 0 -41.50 0 -41.50 -13.50 0 -13.50 0 0 41.50 0 41.50 -14 0 -14 0 0 -41.50z"/>
 </g>
</svg>