<?xml version="1.0" encoding="utf-8"?>
<!DOCTYPE svg PUBLIC "-//W3C//DTD SVG 1.0//EN" "http://www.w3.org/TR/2001/REC-SVG-20010904/DTD/svg10.dtd">
<svg version="1.0" xmlns="http://www.w3.org/2000/svg" width="328px" height="308px" viewBox="0 0 328 308" preserveAspectRatio="xMidYMid meet">
 <g fill="#88d8d4">
  <path d="M97 249.50 l0 -32.50 -32.50 0 -32.50 0 0 -32.50 0 -32.50 32.50 0 32.50 0 0 -32.50 0 -32.50 -32.50 0 -32.50 0 0 -32.50 0 -32.50 32.50 0 32.50 0 0 32.50 0 32.50 32.50 0 32.50 0 0 -32.50 0 -32.50 32.50 0 32.50 0 0 32.50 0 32.50 32.50 0 32.50 0 0 32.50 0 32.50 -32.50 0 -32.50 0 0 32.50 0 32.50 32.50 0 32.50 0 0 32.50 0 32.50 -32.50 0 -32.50 0 0 -32.50 0 -32.50 -32.50 0 -32.50 0 0 32.50 0 32.50 -32.50 0 -32.50 0 0 -32.50z m65 -65 l0 -32.50 32.50 0 32.50 0 0 -32.50 0 -32.50 -32.50 0 -32.50 0 0 32.50 0 32.50 -32.50 0 -32.50 0 0 32.50 0 32.50 32.50 0 32.50 0 0 -32.50z"/>
 </g>
</svg>