<?xml version="1.0" encoding="utf-8"?>
<!DOCTYPE svg PUBLIC "-//W3C//DTD SVG 1.0//EN" "http://www.w3.org/TR/2001/REC-SVG-20010904/DTD/svg10.dtd">
<svg version="1.0" xmlns="http://www.w3.org/2000/svg" width="442px" height="158px" viewBox="0 0 442 158" preserveAspectRatio="xMidYMid meet">
 <g fill="#88d8d4">
  <path d="M64.25 143.50 c-6.25 -2.05 -11.70 -7.60 -13.80 -14.10 -0.90 -2.85 -1.05 -4.20 -0.85 -8.05 0.20 -3.95 0.50 -5.20 1.90 -8.10 5.20 -10.85 18.20 -15.75 28.80 -10.80 3.65 1.70 8.20 5.75 10.10 9 1.55 2.70 3.10 8.05 3.10 10.90 0 8.45 -5.20 16.70 -12.80 20.25 -2.95 1.35 -4 1.60 -8.40 1.75 -4 0.10 -5.65 -0.05 -8.05 -0.85z"/>
  <path d="M149.65 144.05 c-6.85 -1.75 -12.75 -7.45 -15.15 -14.60 -1.40 -4.10 -1.20 -10.75 0.40 -14.95 2.20 -5.60 7.10 -10.40 12.85 -12.60 2.40 -0.90 4 -1.15 8 -1.15 4.55 0 5.30 0.15 8.40 1.60 3.80 1.80 8.30 5.80 10.25 9.10 1.55 2.70 3.10 8.05 3.10 10.90 0 8.40 -4.85 16.30 -12.30 20 -3.45 1.70 -4.10 1.85 -8.85 1.95 -2.80 0.10 -5.80 -0.05 -6.70 -0.25z"/>
  <path d="M235.80 143.50 c-12.45 -4.40 -18.30 -18.65 -12.50 -30.50 2.35 -4.70 5.50 -7.85 10.25 -10.20 14.45 -7.15 31.35 3.50 31.45 19.70 0 6.35 -2.55 12.05 -7.35 16.50 -4.25 3.90 -7.40 5.10 -13.90 5.35 -4.10 0.15 -5.50 0 -7.95 -0.85z"/>
  <path d="M319.80 143.45 c-8.65 -2.95 -14.75 -11.45 -14.80 -20.55 -0.05 -8.60 4.75 -16.25 12.55 -20.10 8.40 -4.15 18.30 -2.50 24.95 4.20 11.55 11.60 7 31.25 -8.40 36.45 -4.10 1.40 -10.25 1.40 -14.30 0z"/>
  <path d="M408.85 144 c-5.65 -1.45 -11 -5.85 -13.55 -11.15 -4.50 -9.20 -3.25 -18 3.45 -25.25 10.70 -11.60 29.20 -8.55 35.90 5.90 2.10 4.55 2.45 10.85 0.90 15.90 -1.85 6.15 -6.20 10.95 -12.40 13.65 -2.75 1.20 -11.05 1.75 -14.30 0.95z"/>
  <path d="M22.50 100.30 c-3.80 -0.90 -5.90 -1.90 -8.90 -4.30 -12.40 -9.80 -10.20 -30.15 4.05 -37.15 16.10 -7.85 34.20 5.30 31.80 23.15 -1.75 12.80 -14.15 21.25 -26.95 18.30z"/>
  <path d="M107 100.30 c-4 -0.85 -7.20 -2.55 -10.45 -5.55 -5.10 -4.75 -7.40 -10.60 -6.90 -17.75 0.75 -10.15 7.90 -18 18.25 -20.10 7.90 -1.55 17.65 2.65 22.05 9.50 2.65 4.20 3.70 8.20 3.40 13.35 -0.25 4.90 -1.15 7.70 -3.50 11.20 -3.40 5 -7.95 8.05 -14 9.35 -3.75 0.80 -5.25 0.80 -8.85 0z"/>
  <path d="M193.70 100.20 c-16.50 -3.95 -22.20 -25.10 -10 -37.20 12.25 -12.20 32.60 -6.30 37.10 10.75 1.90 7.10 -0.60 15.50 -6.20 20.85 -5.95 5.70 -12.75 7.50 -20.90 5.60z"/>
  <path d="M278.50 100.30 c-4.40 -1 -7.55 -2.75 -10.75 -6.05 -3.25 -3.25 -4.80 -6.05 -6 -10.60 -1.90 -7.30 0.30 -14.75 6.05 -20.55 5.60 -5.60 13.10 -7.75 20.35 -5.85 4.60 1.20 7.40 2.80 10.60 6 3.45 3.40 4.95 6.20 6.10 11.40 1.05 4.70 0.40 9.15 -2.20 14.25 -2.95 5.90 -8.30 9.95 -15 11.35 -4 0.85 -5.45 0.85 -9.15 0.05z"/>
  <path d="M366.35 100.45 c-6 -1.15 -12.75 -6.20 -15.25 -11.45 -1.35 -2.85 -2.60 -7.65 -2.60 -10.10 0 -5.20 2.35 -11.05 6.10 -15.20 10.55 -11.50 29.15 -8.70 36.15 5.40 4.15 8.50 2.45 18.85 -4.25 25.45 -5.45 5.30 -12.40 7.35 -20.15 5.90z"/>
  <path d="M66.25 56.30 c-6.45 -1.65 -11.85 -6 -14.80 -12.05 -1.65 -3.35 -1.70 -3.70 -1.70 -9.30 0 -5.65 0.05 -5.85 1.85 -9.50 2.30 -4.65 6.10 -8.40 10.75 -10.60 3.20 -1.50 3.70 -1.60 9.15 -1.60 5.55 0 5.90 0.05 9.25 1.70 9.30 4.55 14.60 15.35 12.05 24.80 -1.15 4.35 -2.55 6.90 -5.50 10.15 -5.45 5.85 -13.45 8.30 -21.05 6.40z"/>
  <path d="M149 56.20 c-5.85 -1.55 -10.65 -5.65 -13.55 -11.45 -6.65 -13.50 1.45 -29 16.70 -31.80 8.95 -1.65 19.10 3.90 23.30 12.75 3 6.25 2.60 14.30 -1 20.60 -1.65 2.90 -5.65 6.75 -8.40 8.20 -4.95 2.50 -11.60 3.15 -17.05 1.70z"/>
  <path d="M237.75 56.35 c-6.15 -1.60 -11.65 -6.20 -14.55 -12.25 -5.25 -10.80 -0.55 -23.70 10.55 -29.15 3.35 -1.65 3.70 -1.70 9.30 -1.70 5.65 0 5.85 0.05 9.50 1.85 8.25 4.10 12.95 12.25 12.30 21.40 -0.60 8.80 -5.90 15.85 -14.40 19.05 -3.35 1.30 -9.30 1.65 -12.70 0.80z"/>
  <path d="M321 56.35 c-7.10 -2 -12.70 -7.35 -15 -14.35 -0.95 -2.75 -1.05 -4.05 -0.90 -8.25 0.20 -4.30 0.45 -5.45 1.85 -8.35 4.10 -8.65 14.40 -14.10 23.30 -12.45 4.95 0.90 8.55 2.80 12.30 6.55 4.55 4.55 6.05 7.80 6.35 14.05 0.15 3.55 0 5.50 -0.65 7.75 -1.65 5.85 -6.25 11.10 -12.10 13.80 -2.80 1.35 -3.95 1.60 -8.10 1.75 -2.90 0.10 -5.70 -0.10 -7.05 -0.50z"/>
  <path d="M410.10 56.45 c-11.15 -2.15 -19.35 -14.30 -17.10 -25.20 1.50 -7.35 5.90 -13.15 12.25 -16.25 3.30 -1.65 3.80 -1.70 9 -1.75 6.90 0 10.30 1.15 14.45 4.85 5.85 5.20 8 10.25 7.70 17.90 -0.15 4.05 -0.40 5.25 -1.80 8.15 -4.35 9.30 -14.35 14.30 -24.50 12.30z"/>
 </g>
</svg>