<?xml version="1.0" encoding="utf-8"?>
<!DOCTYPE svg PUBLIC "-//W3C//DTD SVG 1.0//EN" "http://www.w3.org/TR/2001/REC-SVG-20010904/DTD/svg10.dtd">
<svg version="1.0" xmlns="http://www.w3.org/2000/svg" width="790px" height="192px" viewBox="0 0 790 192" preserveAspectRatio="xMidYMid meet">
 <g fill="black">
  <path d="M180 176.50 c0.95 -0.95 1 -1.65 1 -16.10 0 -8.35 -0.20 -15.40 -0.40 -15.70 -0.20 -0.30 -0.80 -0.80 -1.35 -1.10 -0.85 -0.50 -0.65 -0.55 1.40 -0.60 1.90 0 2.65 0.25 3.65 1.25 l1.20 1.20 1.75 -1.20 c4.65 -3.15 10.70 -1.55 14 3.65 1.15 1.80 1.45 2.95 1.65 6.15 0.20 3.50 0.10 4.20 -1.15 6.70 -2.60 5.35 -7.90 7.15 -13.50 4.55 -1.60 -0.70 -2.95 -1.30 -3.05 -1.30 -0.10 0 -0.20 2.60 -0.20 5.75 0 5.10 0.10 5.85 1 6.75 l1 1 -4 0 -4 0 1 -1z m14.55 -12.15 c2.75 -1.80 3.70 -4.35 3.70 -9.60 0 -3.85 -0.20 -4.90 -1.25 -6.95 -2.35 -4.55 -6.90 -5.55 -10.30 -2.25 l-1.70 1.65 0 7.50 c0 4.15 0.20 7.80 0.40 8.10 0.65 1 4.30 2.65 5.90 2.70 0.85 0 2.30 -0.50 3.25 -1.15z"/>
  <path d="M292.05 166.60 c-3 -0.10 -3.55 -0.25 -2.90 -0.75 0.70 -0.50 0.80 -2.05 0.90 -9.65 0.05 -5 -0.05 -9.30 -0.25 -9.60 -0.15 -0.25 0 -0.70 0.35 -1 0.70 -0.55 3.70 -2.10 4.10 -2.10 0.15 0 0.25 4.95 0.25 11 0 10.85 0 11.05 1.10 11.45 1.65 0.60 0.50 0.80 -3.55 0.65z"/>
  <path d="M308.15 166.55 c-1.40 -0.20 -2.75 -0.50 -3 -0.75 -0.20 -0.20 -0.50 -4.50 -0.65 -9.55 -0.30 -10.25 -0.45 -10.75 -4 -11.80 -1.45 -0.45 -2.20 -0.40 -3.65 0.25 -1.05 0.40 -1.75 0.55 -1.60 0.30 0.15 -0.20 1.25 -0.80 2.50 -1.25 3.80 -1.45 8.10 -0.20 9.90 2.90 0.35 0.70 0.70 4.15 0.85 9.50 l0.25 8.45 1.50 1.20 c0.85 0.65 1.30 1.15 1 1.15 -0.25 -0.05 -1.65 -0.25 -3.10 -0.40z"/>
  <path d="M403.65 166.30 c2.90 -0.80 3.70 -1.50 4.15 -3.65 0.40 -2.05 -1.10 -3.60 -4.55 -4.90 -6.45 -2.30 -8.05 -3.60 -8.60 -6.95 -0.50 -3.10 2.60 -7.35 5.35 -7.30 0.40 0.05 0.15 0.35 -0.60 0.80 -2.75 1.45 -3.20 4.50 -1 6.65 0.75 0.75 3 2 5 2.75 6 2.30 8.10 5.40 6.25 9.20 -1.05 2.10 -4.40 4.10 -6.90 4.05 -1.25 0 -1.10 -0.10 0.90 -0.65z"/>
  <path d="M439.40 166.60 c-3.85 -0.15 -3.85 -0.15 -2.90 -1.10 0.90 -0.90 1 -1.75 1 -9.95 0 -6.40 -0.15 -9 -0.60 -9.15 -0.30 -0.10 0.45 -0.80 1.75 -1.55 2.65 -1.55 2.85 -1.60 2.85 -0.60 0 0.95 -0.05 0.95 2.85 -0.30 4 -1.75 8.75 -0.50 10.50 2.70 0.70 1.30 0.90 3.15 1.05 9.70 0.15 7.10 0.30 8.15 1.15 9.10 0.50 0.55 0.95 1.10 0.95 1.15 0 0.10 -1.20 0.05 -2.60 -0.10 -3.70 -0.35 -3.90 -0.90 -3.90 -10.65 0 -7.95 -0.25 -9.45 -1.95 -10.70 -1.20 -0.90 -3.75 -1.25 -5.15 -0.70 -2.80 1.05 -2.90 1.40 -2.90 11.10 0 8.40 0.05 9 1.05 10 0.55 0.55 0.95 1.05 0.85 1.10 -0.05 0.05 -1.90 0.05 -4 -0.05z"/>
  <path d="M507.60 166.50 c-2.20 -0.50 -4 -2.25 -4.60 -4.45 -0.30 -1 -0.55 -5.10 -0.60 -9.10 l-0.15 -7.30 1.85 -1.10 c1 -0.55 1.95 -1.05 2.10 -1.05 0.20 0 0.30 4.05 0.30 9 0 9.55 0.35 11.35 2.45 12.50 1.35 0.70 5.20 0.65 5.95 -0.10 0.30 -0.30 0.75 -0.45 0.90 -0.25 0.50 0.50 -3.80 2.35 -5.30 2.30 -0.70 -0.05 -2 -0.25 -2.90 -0.45z"/>
  <path d="M545.25 166.50 c-3.50 -0.35 -3.75 -0.95 -3.75 -10.85 l0 -8.15 -1.40 -1.55 c-1.20 -1.30 -1.80 -1.60 -3.65 -1.65 -1.35 0 -2.70 0.30 -3.55 0.90 l-1.40 0.90 0 9.40 c0 7.90 0.15 9.55 0.80 10.20 0.70 0.75 0.45 0.80 -3 0.80 l-3.80 0 1 -1 c0.95 -0.95 1 -1.65 1 -9.95 0 -6.65 -0.15 -9 -0.60 -9.15 -0.35 -0.15 0.40 -0.85 1.65 -1.55 2.65 -1.55 2.95 -1.60 2.95 -0.60 0 0.95 -0.05 0.95 2.85 -0.30 4 -1.75 8.80 -0.50 10.50 2.70 0.70 1.25 0.95 3.35 1.15 10 0.20 7.60 0.35 8.50 1.20 9.15 1.30 0.90 1 1 -1.95 0.70z"/>
  <path d="M591.10 166.65 c-4 -0.20 -4.10 -0.20 -3.10 -1.05 1.05 -0.85 1.05 -1.20 0.90 -10.40 l-0.15 -9.60 2 -1.05 c1.10 -0.60 2.15 -1.05 2.40 -1.05 0.20 0 0.35 4.90 0.35 10.95 0 10.75 0 10.95 1.15 11.70 0.60 0.45 1 0.75 0.85 0.70 -0.15 0 -2.10 -0.15 -4.40 -0.20z"/>
  <path d="M160.60 165.45 c-6.60 -3.30 -8.20 -12.65 -3.15 -18.50 4.40 -5.20 12.25 -5.25 16.45 -0.15 3.85 4.65 3.45 12.20 -0.85 16.50 -3.30 3.35 -8.30 4.20 -12.45 2.15z m8.65 -1.10 c4.65 -4.65 4.05 -16.85 -0.95 -19.90 -2.25 -1.35 -4 -1.20 -6 0.55 -4.80 4.25 -4.75 15.90 0.10 19.85 2.10 1.75 4.80 1.55 6.85 -0.50z"/>
  <path d="M209.85 165.95 c-1.95 -1.10 -2.35 -3.45 -2.35 -12.90 l0 -9 -1.60 -0.15 c-1.40 -0.15 -1.50 -0.25 -0.65 -0.60 2.55 -0.95 3.60 -1.70 4.75 -3.50 l1.25 -1.95 0.25 2.45 0.25 2.45 2.15 0.15 c1.15 0.10 2.10 0.35 2.10 0.60 0 0.25 -0.95 0.50 -2.10 0.60 l-2.15 0.15 -0.15 8.25 c-0.20 11.30 0.25 13 3.30 13 1.05 0 1.20 0.10 0.60 0.50 -1 0.65 -4.50 0.60 -5.65 -0.05z"/>
  <path d="M218.30 166 c1.50 -0.60 1.70 -2.30 1.60 -12.20 l-0.05 -8.45 1.70 -0.90 c0.95 -0.50 1.85 -0.90 2.10 -0.95 0.20 0 0.35 4.95 0.35 11 0 9.90 0.10 11 0.90 11.45 0.60 0.40 -0.30 0.50 -3.40 0.50 -2.85 0 -3.90 -0.15 -3.20 -0.45z"/>
  <path d="M235 165.70 c-4.55 -1.95 -7.45 -7.10 -6.75 -11.95 0.50 -3.25 3.05 -7.20 5.95 -9.10 1.30 -0.90 2.80 -1.65 3.25 -1.65 0.45 0 -0.05 0.50 -1.10 1.10 -3.50 2.05 -5.10 7.55 -3.65 12.55 2.35 8.05 10.20 10.35 16.45 4.85 1.05 -0.90 1.75 -1.25 1.55 -0.85 -0.40 1.15 -5.15 4.60 -7.15 5.30 -2.35 0.75 -6.45 0.65 -8.55 -0.25z"/>
  <path d="M254.05 165.45 c0.95 -0.95 1 -1.50 0.85 -10.45 l-0.15 -9.45 1.80 -1.05 c1 -0.55 1.95 -1 2.15 -1 0.15 0 0.30 4.80 0.30 10.65 0 5.80 0.20 10.85 0.40 11.15 0.20 0.30 0.70 0.70 1.10 0.85 0.40 0.15 -1.10 0.30 -3.35 0.30 l-4.15 0.05 1.05 -1.05z"/>
  <path d="M269.75 165.55 c-2.50 -1.10 -5.05 -3.95 -5.75 -6.40 -0.30 -1.05 -0.50 -3.15 -0.40 -4.65 0.15 -2.45 0.30 -2.75 1.35 -2.90 0.65 -0.10 3.05 0.45 5.30 1.15 4.90 1.60 7.15 1.45 9.35 -0.75 1 -1.05 1.40 -1.90 1.40 -3.20 0 -3.80 -1.70 -5.30 -5.95 -5.30 -3.30 0 -5.50 1.55 -6.75 4.75 -0.55 1.40 -1.05 2.55 -1.10 2.65 -0.25 0.40 -2.20 -0.95 -2.20 -1.50 0 -1.25 2.70 -4 5.15 -5.25 3.40 -1.75 8.20 -1.95 10.85 -0.35 6.55 3.85 4.45 11.20 -3.20 11.20 -1.20 0 -4.05 -0.55 -6.30 -1.20 l-4.10 -1.20 0.20 2.75 c0.40 4.75 3.95 8.60 8.30 9.05 3.15 0.30 5.40 -0.45 8.05 -2.70 1.10 -1 2.05 -1.55 2.05 -1.25 0 0.85 -5.60 5 -7.50 5.55 -2.70 0.75 -6.55 0.55 -8.75 -0.45z"/>
  <path d="M333.80 165.45 c-2.75 -2.15 -3.30 -5.45 -1.40 -8.35 0.45 -0.65 3 -2.25 5.90 -3.65 3 -1.40 5.40 -2.90 5.75 -3.50 0.65 -1.30 0.25 -3.80 -0.90 -5.05 -0.45 -0.50 -0.55 -0.90 -0.30 -0.90 1.50 0 2.55 3.85 1.65 6 -0.40 1 -1.55 1.90 -3.80 3.05 -1.75 0.85 -3.75 2.25 -4.45 3.05 -2.20 2.60 -1.45 6.70 1.50 8.15 2.75 1.25 4.55 0.90 7.20 -1.45 0.75 -0.65 1.10 -0.80 0.95 -0.35 -0.10 0.40 -1.05 1.40 -2.10 2.25 -1.55 1.30 -2.40 1.55 -5.20 1.70 -2.90 0.15 -3.55 0.05 -4.80 -0.95z"/>
  <path d="M347.50 165.40 c-1.10 -1.20 -1.10 -1 -1 -10.55 0.10 -9.80 -0.60 -11.35 -5 -11.35 -2.60 0 -4.35 1 -6.20 3.60 -1.35 1.90 -1.50 2 -2.15 1.10 -0.95 -1.30 -0.65 -1.75 2.05 -3.45 3.20 -1.95 7.65 -2.30 10.95 -0.85 3.80 1.70 4.05 2.50 4.35 12.70 0.20 7.20 0.40 9.05 1 9.40 0.55 0.35 0.25 0.50 -1.10 0.50 -1.30 0 -2.20 -0.35 -2.90 -1.10z"/>
  <path d="M355.70 165.70 c0.70 -0.70 0.80 -2.15 0.70 -10.35 l-0.15 -9.60 1.95 -1.10 c2.20 -1.35 3 -1.45 2.60 -0.40 -0.35 0.95 0.15 0.95 2.20 -0.05 1.95 -1 5.75 -1.50 6.15 -0.85 0.15 0.25 0.15 0.95 0 1.55 -0.20 0.90 -0.50 1.05 -1.60 0.70 -2.15 -0.60 -5.65 -0.30 -6.30 0.55 -0.35 0.50 -0.50 3.85 -0.40 9.90 0.10 8.05 0.20 9.25 0.95 9.80 0.75 0.55 0.25 0.65 -3 0.65 -3.55 0 -3.80 -0.05 -3.10 -0.80z"/>
  <path d="M374.50 165.30 c-1.55 -1.70 -1.95 -4.30 -2 -13.40 l0 -7.90 -1.25 0 c-0.70 0 -1.25 -0.20 -1.25 -0.50 0 -0.25 0.35 -0.50 0.75 -0.50 1.55 0 3.55 -1.45 4.50 -3.20 0.55 -1 1.15 -1.80 1.35 -1.80 0.25 0 0.40 1.15 0.40 2.50 l0 2.50 2.25 0 c1.25 0 2.25 0.25 2.25 0.50 0 0.30 -1 0.50 -2.25 0.50 l-2.25 0 0 9.65 c0 10.85 0.25 11.85 3.15 11.85 1.20 0 1.40 0.15 0.85 0.50 -0.40 0.25 -1.80 0.50 -3.05 0.50 -1.75 0 -2.55 -0.25 -3.45 -1.20z"/>
  <path d="M384.05 165.45 c0.95 -0.95 1 -1.50 0.85 -10.40 l-0.15 -9.40 1.85 -1.10 c1 -0.55 1.95 -1.05 2.10 -1.05 0.20 0 0.30 4.75 0.30 10.50 0 9.85 0.05 10.55 1 11.50 l1 1 -4 0 -4 0 1.05 -1.05z"/>
  <path d="M397.10 165.50 c-1.75 -1.05 -3.60 -3.70 -3.60 -5.10 0 -1.60 1.05 -0.95 2 1.25 1.05 2.40 2.15 3.55 4 4.30 1.05 0.40 1.10 0.50 0.25 0.50 -0.55 0.05 -1.75 -0.40 -2.65 -0.95z"/>
  <path d="M414.65 165.45 c-1.85 -1.20 -3 -4.05 -2.45 -6.25 0.50 -1.95 3.20 -4.25 6.60 -5.65 4.05 -1.65 6.20 -3.10 6.25 -4.30 0.05 -0.90 0.10 -0.90 0.30 -0.10 0.30 1.25 -0.60 2.20 -3.55 3.70 -3.20 1.60 -5.65 3.90 -6.05 5.65 -0.65 3 2.20 6.50 5.25 6.50 1.95 0 4.45 -1.45 5.50 -3.10 1.65 -2.70 1.35 -14.55 -0.45 -17.35 -0.25 -0.35 -1.55 -0.80 -2.90 -0.90 -3.15 -0.30 -5.20 0.70 -7 3.40 -1.20 1.80 -1.40 1.95 -2.10 1.20 -1.10 -1.10 -0.30 -2.20 2.95 -3.85 5.05 -2.65 11.45 -1.40 13.50 2.65 0.85 1.65 1 2.95 1 9.70 0 4.45 0.20 8.25 0.50 8.80 0.50 0.85 0.35 0.95 -1 0.95 -1.75 0 -3.50 -1.55 -3.50 -3.10 0 -1.05 0 -1.05 -1.35 0.20 -3.30 3.05 -8.35 3.85 -11.50 1.85z"/>
  <path d="M464 165.25 c-1.50 -1.60 -1.90 -4.55 -1.95 -14.10 l-0.05 -7.15 -1.25 0 c-0.70 0 -1.25 -0.20 -1.25 -0.50 0 -0.25 0.55 -0.50 1.20 -0.50 1.35 0 4.05 -2.40 4.55 -4 0.60 -1.85 1.25 -1.05 1.25 1.50 l0 2.50 2.25 0 c1.25 0 2.25 0.25 2.25 0.50 0 0.30 -1 0.50 -2.25 0.50 l-2.25 0 0 9.65 c0 10.55 0.30 11.85 2.80 11.85 0.70 0 1.10 0.20 0.95 0.50 -0.15 0.30 -1.40 0.50 -2.70 0.50 -1.90 0 -2.60 -0.25 -3.55 -1.25z"/>
  <path d="M492.05 165.45 c0.95 -0.95 1 -1.45 0.85 -15.95 l-0.15 -14.95 1.80 -1.05 c1 -0.55 1.95 -1 2.15 -1 0.15 0 0.30 7.30 0.30 16.20 0 14.10 0.10 16.35 0.80 17 0.70 0.75 0.45 0.80 -3 0.80 l-3.80 0 1.05 -1.05z"/>
  <path d="M516.90 166.40 c-0.05 -0.10 -0.20 -4.75 -0.35 -10.40 l-0.30 -10.25 1.95 -1.10 c1.05 -0.65 2.10 -1.15 2.30 -1.15 0.25 0 0.45 4.75 0.50 10.60 0 9.05 0.15 10.75 0.85 11.50 0.75 0.85 0.65 0.90 -2 0.90 -1.60 0 -2.90 -0.05 -2.95 -0.10z"/>
  <path d="M557.10 165.95 c-2.55 -0.75 -5.80 -4.30 -6.50 -7.05 -0.65 -2.60 -0.75 -4.55 -0.30 -6.25 0.40 -1.45 2.05 -1.50 5.50 -0.20 3.55 1.35 7.15 1.75 8.70 0.95 0.65 -0.35 1.75 -1.45 2.40 -2.40 2.05 -3.05 0.60 -6.65 -2.95 -7.45 -4.05 -0.85 -7.80 1.25 -9.20 5.25 -0.35 1.10 -0.80 1.90 -0.95 1.85 -0.15 -0.10 -0.65 -0.15 -1.05 -0.15 -1.40 0 -0.80 -2.25 1.15 -4.10 4.95 -4.75 11.50 -5.10 15.70 -0.90 1.55 1.55 1.90 2.25 1.90 3.85 0 3.45 -2.70 5.65 -6.85 5.65 -1.70 0 -7.25 -1.30 -9.85 -2.30 -0.85 -0.35 -0.95 -0.15 -0.70 1.90 0.40 3.45 2.20 6.75 4.55 8.30 1.70 1.15 2.60 1.35 5.35 1.35 3.15 0 3.50 -0.10 6.30 -2.20 l2.95 -2.20 -2 2.10 c-3.80 4 -9 5.45 -14.15 4z"/>
  <path d="M578.45 165.20 c-1.15 -1.25 -1.20 -1.50 -1.35 -11.25 l-0.15 -9.95 -1.20 0 c-0.65 0 -1.35 -0.20 -1.50 -0.50 -0.20 -0.30 0.25 -0.50 1 -0.50 1.35 0 3.20 -1.55 4.85 -4 l0.85 -1.25 0 2.65 0.05 2.60 2.25 0 c1.25 0 2.25 0.25 2.25 0.50 0 0.30 -1.05 0.50 -2.30 0.50 l-2.25 0 0.15 10.05 c0.15 9.25 0.25 10.10 1.10 10.75 0.55 0.40 1.55 0.70 2.25 0.70 1.05 0 1.15 0.10 0.55 0.50 -0.40 0.25 -1.80 0.50 -3.05 0.50 -1.80 0 -2.50 -0.25 -3.50 -1.30z"/>
  <path d="M604.95 166 c-2.10 -0.60 -4.45 -2.60 -5.80 -4.85 -1.40 -2.45 -2.05 -6.95 -1.20 -8.55 0.75 -1.40 2.05 -1.40 5.55 -0.05 3.25 1.25 7.30 1.50 9.15 0.50 1.80 -0.95 3.05 -3.70 2.65 -5.85 -0.50 -2.55 -2.35 -3.70 -5.95 -3.70 -2.80 0 -3.10 0.10 -4.90 1.95 -1.10 1.05 -2.10 2.65 -2.25 3.50 -0.40 1.80 -0.80 2.20 -1.90 1.75 -2.10 -0.80 0.65 -4.90 4.65 -6.95 6.05 -3.05 14.05 0.30 14.05 5.90 0 2.90 -2.05 4.85 -5.50 5.20 -2.55 0.25 -7.40 -0.70 -11.20 -2.15 -0.90 -0.35 -0.95 -0.20 -0.65 2.05 0.80 5.85 4.60 9.75 9.40 9.75 2.95 0 4.10 -0.40 7.20 -2.70 l2.50 -1.85 -2.80 2.65 c-1.70 1.65 -3.55 2.90 -4.80 3.30 -2.25 0.65 -6.20 0.75 -8.20 0.10z"/>
  <path d="M623.75 165.30 c0.65 -0.95 0.75 -2.75 0.65 -10.35 l-0.15 -9.20 1.75 -1.10 c2.10 -1.35 2.50 -1.40 2.50 -0.40 0 0.95 0.45 0.95 2.50 -0.05 1.90 -0.95 5.75 -1.50 6.15 -0.90 0.10 0.25 0.05 0.90 -0.15 1.50 -0.40 0.95 -0.60 1 -2.85 0.55 -1.90 -0.40 -2.75 -0.35 -3.90 0.20 l-1.50 0.70 -0.15 9.10 c-0.10 8.60 -0.05 9.20 0.90 10.15 l1 1 -3.75 0 -3.75 0 0.75 -1.20z"/>
  <path d="M245.60 146.50 c-1.45 -1.95 -3.25 -3.10 -5.50 -3.55 -1.75 -0.30 -1.70 -0.35 0.80 -0.40 2.90 -0.05 5.70 0.90 7.45 2.55 1.45 1.35 1.45 2.20 0.05 2.60 -1.65 0.40 -1.60 0.45 -2.80 -1.20z"/>
  <path d="M405.65 145.45 c-2 -1.75 -2.05 -2.10 -0.25 -1.35 1.95 0.85 2.90 1.80 2.35 2.35 -0.30 0.30 -1.10 -0.05 -2.10 -1z"/>
  <path d="M424.65 145.70 c-0.30 -0.65 -0.35 -1.20 -0.15 -1.20 0.45 0 1.25 1.95 0.90 2.25 -0.10 0.10 -0.40 -0.35 -0.75 -1.05z"/>
  <path d="M220.10 138.90 c-0.35 -0.35 -0.60 -1.20 -0.60 -2 0 -2.50 3.30 -3.10 4.55 -0.85 1.15 2.15 -2.20 4.60 -3.95 2.85z"/>
  <path d="M255.30 138.70 c-1.05 -1.05 -1 -2.35 0.10 -3.35 1.20 -1.10 2.25 -1.05 3.25 0.05 1.10 1.20 1.05 2.25 -0.05 3.25 -1.15 1.05 -2.30 1.10 -3.30 0.05z"/>
  <path d="M385.35 138.60 c-1.10 -1.20 -1.05 -2.25 0.05 -3.25 1.15 -1.05 2.30 -1.10 3.30 -0.05 1.50 1.50 0.45 4.20 -1.65 4.20 -0.50 0 -1.25 -0.40 -1.70 -0.90z"/>
  <path d="M589.35 138.45 c-1.50 -2.10 0.60 -4.60 2.95 -3.50 1.35 0.60 1.65 2.90 0.60 3.95 -0.95 0.95 -2.75 0.70 -3.55 -0.45z"/>
  <path d="M275.40 119.75 c-18.65 -3.55 -33.75 -18.20 -38.10 -37 l-0.55 -2.50 -3.15 -0.15 -3.10 -0.15 0 -9.65 0 -9.65 1.95 -0.35 c2.80 -0.45 4.75 -2.60 6.05 -6.60 2.05 -6.40 6.05 -13.15 10.70 -18.20 7.65 -8.20 16.85 -13.05 28.35 -14.80 4.95 -0.75 6.40 -0.80 11.20 -0.25 6.60 0.70 13.45 2.90 19.05 6.10 4.65 2.65 10.95 8.45 14.15 13 l2.35 3.30 3.10 -3.10 c6.70 -6.75 16.80 -9.90 25.50 -8.05 10.30 2.20 17.80 8.15 21.65 17.15 1.05 2.50 2.45 8.35 2.45 10.45 l0 1.20 -10 0 c-7.60 0 -10.10 -0.15 -10.20 -0.60 -0.15 -0.35 -0.35 -1.25 -0.50 -2 -0.40 -1.85 -3.15 -4.90 -5.15 -5.70 -4.80 -2 -10.05 0.60 -11.80 5.80 l-0.75 2.25 -14.30 0 -14.35 0 -1.15 -3.25 c-3.95 -11.35 -12.75 -17.60 -24.80 -17.55 -5.45 0 -9.40 0.90 -13.45 3.05 -6.20 3.30 -10.80 8.95 -13.40 16.25 -1.30 3.70 -1.35 4.55 -1.35 11.75 0 7.15 0.10 8.05 1.30 11.40 2 5.45 4.05 8.65 7.65 12 8.70 8.20 21.60 9.80 32.65 4.15 3.40 -1.75 7.95 -6.65 9.90 -10.70 0.90 -1.95 1.85 -4.30 2 -5.20 l0.30 -1.65 10 0 10.05 0 -0.35 2.50 c-1.25 9.30 -7.05 19.75 -14.70 26.20 -6.05 5.20 -11 7.75 -19.10 9.90 -5 1.30 -14.90 1.65 -20.10 0.65z"/>
  <path d="M423.45 119.70 c-15.50 -2.80 -29.15 -13.75 -35.30 -28.30 -3.30 -7.85 -3.90 -11.15 -3.90 -20.90 0 -7.55 0.15 -9.35 1.15 -13.25 4.60 -17.55 17.75 -31.15 34.40 -35.50 21.65 -5.65 44.60 4.60 53.75 24.05 1.85 3.85 3.95 11.15 3.95 13.60 l0 1.10 -9.80 -0.10 -9.80 -0.15 -1.10 -3.25 c-3.80 -11.20 -13 -17.70 -25.05 -17.60 -5.05 0 -8.10 0.70 -12.50 2.85 -6.80 3.30 -11.90 9.45 -14.35 17.25 -1 3.25 -1.15 4.75 -1.15 11.25 0.05 6.85 0.15 7.80 1.40 11.15 1.95 5.45 4 8.65 7.60 12 8.75 8.20 21.55 9.80 32.65 4.15 3.55 -1.80 8 -6.70 9.90 -10.85 0.95 -2 1.85 -4.35 2 -5.20 l0.35 -1.50 9.90 0 9.95 0 0 1.15 c0 2.40 -2.05 9.20 -4.05 13.35 -8.70 18.25 -29.35 28.45 -50 24.70z"/>
  <path d="M580.25 119.70 c-10.05 -1.85 -18.50 -6.40 -25.40 -13.65 -4.55 -4.80 -6.35 -7.40 -9.10 -13.20 -9.40 -19.85 -5.55 -43.60 9.45 -58.65 12.10 -12.10 28.90 -16.70 45.55 -12.45 17.90 4.55 30.20 18.05 33.55 36.90 l0.30 1.85 -9.95 0 -9.95 0 -1.10 -3.45 c-3.55 -10.95 -12.85 -17.65 -24.60 -17.70 -7.70 0 -13.80 2.25 -19.10 7.15 -7.40 6.75 -11 17.70 -9.45 28.65 1.95 13.75 9.95 23.05 22.10 25.60 14 2.95 26.60 -3.90 30.95 -16.85 l1.15 -3.40 9.95 0 9.95 0 -0.35 1.90 c-1.75 10.20 -5.30 17.20 -12.45 24.40 -6.45 6.50 -12.40 9.95 -21.15 12.25 -5.20 1.40 -14.95 1.70 -20.35 0.65z"/>
  <path d="M645 70.50 l0 -49.50 10 0 10 0 0 49.50 0 49.50 -10 0 -10 0 0 -49.50z"/>
  <path d="M23 70.25 l0 -49.25 13.75 0 c10.65 0 13.75 0.15 13.75 0.65 0 0.30 1.55 10.45 3.45 22.45 2.65 16.45 3.70 24.75 4.35 33.50 0.45 6.40 1 11.85 1.20 12.05 0.20 0.20 0.70 0.25 1.15 0.05 0.65 -0.25 0.85 -0.95 0.85 -3.15 0 -4.15 1.35 -19.70 2.25 -25.65 0.90 -6.05 5.60 -35.90 6 -38.25 l0.30 -1.65 13.70 0 13.75 0 0 49.25 0 49.25 -9.75 0 -9.75 0 0 -9.60 c0 -14.45 1.65 -40.15 4.10 -64.25 0.30 -3.35 0.45 -6.30 0.25 -6.50 -0.85 -0.85 -1.40 1.15 -2.35 9.10 -2.25 18.30 -7.25 47.75 -10.90 64.50 l-1.40 6.50 -7.60 0.15 c-4.20 0.05 -7.60 -0.05 -7.60 -0.25 0 -0.25 -0.80 -4.10 -1.75 -8.65 -3.65 -17.05 -8.75 -47.50 -10.55 -63.60 -0.65 -5.20 -1.10 -7.60 -1.55 -7.75 -0.40 -0.15 -0.80 -0.15 -0.95 -0.05 -0.10 0.15 0.10 3.25 0.50 6.95 2.15 19.25 4.30 52.90 4.30 67 l0 6.45 -9.75 0 -9.75 0 0 -49.25z"/>
  <path d="M106.60 117.90 c0.15 -0.90 3.60 -23.10 7.70 -49.30 l7.45 -47.60 13.95 0.10 13.95 0.15 7.40 47.25 c4.05 26 7.50 48.10 7.65 49.15 l0.30 1.85 -9.70 0 -9.70 0 -0.30 -1.85 c-0.15 -1.05 -0.75 -5.60 -1.30 -10.15 -0.55 -4.55 -1.10 -8.75 -1.25 -9.35 -0.25 -1.10 -0.45 -1.15 -7.05 -1.15 -4.95 0 -6.80 0.15 -6.95 0.65 -0.25 0.60 -2.75 20.15 -2.75 21.25 0 0.45 -2.70 0.60 -9.80 0.60 l-9.85 0 0.25 -1.60z m33.55 -39.25 c0.10 -0.25 -0.55 -7.05 -1.45 -15.15 -0.90 -8.10 -1.80 -16.95 -2 -19.60 -0.25 -3.45 -0.55 -4.90 -1 -4.90 -0.40 0 -0.70 1.25 -0.95 3.90 -0.15 2.10 -1.10 11.05 -2.05 19.80 -0.95 8.80 -1.70 16.05 -1.70 16.15 0 0.35 8.95 0.10 9.15 -0.20z"/>
  <path d="M174 70.25 l0 -49.25 15.75 0 c9.70 0 16.70 0.20 18.35 0.55 11.05 2.35 18.40 12.55 18.40 25.40 0 3.90 -1.10 8.75 -2.55 11.65 -2.35 4.65 -8.25 8.85 -13.25 9.55 -1.50 0.20 -2.25 1.25 -1.10 1.55 4.85 1.30 7.15 2.85 9.40 6.30 1.15 1.80 2.45 6.25 6.45 22.65 2.80 11.20 5.05 20.50 5.05 20.60 0 0.15 -4.35 0.25 -9.65 0.25 l-9.70 0 -5.70 -20.75 -5.70 -20.75 -3.10 0 -3.15 0 0 20.75 0 20.75 -9.75 0 -9.75 0 0 -49.25z m29.60 -12.35 c2.45 -1.85 3.60 -5.40 3.25 -9.75 -0.45 -5.85 -3.30 -8.45 -9.85 -9 l-3.50 -0.30 0 10.40 0 10.35 4.15 -0.15 c3.65 -0.20 4.40 -0.40 5.95 -1.55z"/>
  <path d="M349.85 118.80 c-7.35 -2.65 -11.95 -10.50 -10.30 -17.55 0.65 -2.60 2 -5.05 4.80 -8.60 l1.65 -2.05 -1.50 -2.85 c-4.45 -8.50 1.80 -17.85 11.45 -17.15 3.65 0.25 6.30 1.85 8.60 5.25 l1.65 2.35 -3 2.65 c-1.60 1.45 -3.05 2.65 -3.20 2.65 -0.15 0 -0.90 -1 -1.65 -2.25 -2.20 -3.45 -5.20 -3.65 -6.70 -0.50 -1 2.10 -1.15 1.80 7.60 12.65 l6.50 8.10 1.50 -1.85 c0.85 -1.05 2.10 -2.55 2.85 -3.40 l1.35 -1.50 1.25 1.50 c0.70 0.85 1.85 2.35 2.60 3.35 l1.30 1.85 -2.55 2.95 c-2.45 2.80 -3.05 4.20 -2.10 4.85 0.25 0.15 1.15 1.15 2 2.20 l1.55 1.95 -2.60 3.05 c-1.40 1.70 -2.70 3.05 -2.85 3.05 -0.15 -0.05 -1.15 -1.15 -2.25 -2.50 l-1.95 -2.45 -2.15 1.75 c-3.65 3 -9.50 4.05 -13.85 2.50z m8.65 -8.80 c0.85 -0.60 1.50 -1.35 1.50 -1.65 0 -0.35 -1.60 -2.50 -3.55 -4.80 -1.95 -2.35 -3.85 -4.70 -4.25 -5.25 -0.65 -1 -0.70 -1 -1.90 0.15 -4.10 3.85 -3.40 9.90 1.45 12.15 2.40 1.10 4.65 0.90 6.75 -0.60z"/>
  <path d="M491 99.75 l0 -19.75 -3.75 0 -3.75 0 0 -9.75 c0 -9.45 0.05 -9.75 1 -9.75 1.95 0 4.50 -1.45 5.50 -3.10 0.95 -1.55 1 -2.50 1 -19 l0 -17.40 20.50 0 20.50 0 0 9 0 9 -10.60 0.10 -10.65 0.15 -0.15 10.65 -0.10 10.60 10 0 10 0 0 9.75 0 9.75 -9.85 0.10 -9.90 0.15 -0.15 10.65 -0.10 10.60 11 0 11 0 0 9 0 9 -20.75 0 -20.75 0 0 -19.75z"/>
  <path d="M677.50 70.25 l0 -49.25 9.75 0 9.75 0 0 40.25 0 40.25 10 0 10 0 0 9 0 9 -19.75 0 -19.75 0 0 -49.25z"/>
  <path d="M727.50 99.75 l0 -19.75 -3.75 0 -3.75 0 0 -9.75 c0 -9.45 0.05 -9.75 1 -9.75 1.95 0 4.50 -1.45 5.50 -3.10 0.95 -1.55 1 -2.50 1 -19.05 l0 -17.35 20.65 0.10 20.60 0.15 0.15 8.85 0.15 8.90 -10.90 0.10 -10.90 0.15 -0.15 10.65 -0.10 10.60 10 0 10 0 0 9.75 0 9.75 -9.85 0.10 -9.90 0.15 -0.15 10.65 -0.10 10.60 11 0 11 0 0 9 0 9 -20.75 0 -20.75 0 0 -19.75z"/>
  <path d="M273.25 81.05 c-2.25 -0.55 -3.40 -1.30 -5.40 -3.50 -3.70 -4.10 -3.80 -9.95 -0.25 -14.25 4.15 -5.05 12.50 -5.15 16.65 -0.20 1.90 2.25 2.75 4.45 2.75 7.15 0 7.10 -6.80 12.45 -13.75 10.80z"/>
  <path d="M422.35 80.85 c-6.60 -2.15 -9.65 -10.05 -6.20 -16 2.05 -3.45 4.70 -5.05 8.85 -5.25 3.75 -0.25 6.25 0.70 8.55 3.25 2.40 2.55 3.05 4.50 2.85 8.15 -0.15 2.60 -0.50 3.80 -1.55 5.40 -2.55 3.90 -8.15 5.90 -12.50 4.45z"/>
 </g>
</svg>