<?xml version="1.0" standalone="no"?>
<!DOCTYPE svg PUBLIC "-//W3C//DTD SVG 20010904//EN"
 "http://www.w3.org/TR/2001/REC-SVG-20010904/DTD/svg10.dtd">
<svg version="1.0" xmlns="http://www.w3.org/2000/svg"
 width="1000.000000pt" height="1000.000000pt" viewBox="0 3462.000000 3312.000000"
 preserveAspectRatio="xMidYMid meet">
<g transform="translate(0.000000,3312.000000) scale(0.1,-0.100000)"
fill="white" stroke="none">
<path d="M8045 29708 c-22 -5 -58 -12 -80 -17 -185 -37 -401 -159 -560 -316
-150 -148 -254 -320 -321 -530 -24 -76 -89 -145 -137 -145 -59 0 -58 5 -55
-256 l3 -239 68 -3 c79 -3 90 -15 107 -102 6 -30 15 -59 20 -64 6 -6 10 -19
10 -29 0 -10 6 -33 14 -50 8 -18 24 -54 36 -80 119 -271 376 -515 655 -625
161 -63 244 -77 450 -77 178 0 233 7 350 42 310 96 548 293 696 577 27 53 49
104 49 114 0 10 4 22 10 28 5 5 14 30 19 54 5 25 14 63 20 85 13 51 14 102 1
107 -5 2 -118 2 -249 0 l-239 -3 -7 -42 c-15 -84 -105 -243 -178 -312 -49 -46
-149 -115 -167 -115 -7 0 -24 -6 -38 -14 -75 -41 -229 -60 -362 -46 -278 29
-483 195 -601 485 -46 115 -59 393 -23 525 27 101 36 124 71 197 87 176 242
305 448 369 81 26 304 25 385 0 132 -42 214 -90 295 -172 48 -49 55 -57 83
-100 26 -41 75 -151 86 -194 l11 -45 248 -3 247 -2 0 32 c0 18 -5 51 -11 73
-6 22 -15 60 -20 85 -5 24 -14 49 -19 54 -6 6 -10 18 -10 27 0 26 -66 155
-126 244 -74 112 -150 189 -289 293 -30 23 -119 73 -162 92 -26 12 -57 25 -68
30 -35 16 -119 43 -160 51 -22 4 -60 12 -85 18 -56 13 -360 12 -415 -1z"/>
<path d="M1582 29698 c-18 -18 -17 -2493 1 -2505 6 -4 115 -8 240 -8 l228 0 6
24 c8 34 -3 600 -16 766 -14 173 -30 409 -41 577 -4 69 -13 166 -19 215 -34
277 -47 461 -33 475 6 6 17 6 29 -1 17 -8 21 -25 26 -103 3 -51 10 -115 16
-143 10 -49 24 -156 41 -305 4 -41 13 -102 19 -135 33 -185 41 -236 41 -260 0
-15 7 -57 15 -94 8 -36 21 -111 30 -166 9 -55 23 -129 31 -165 8 -36 14 -73
14 -84 0 -10 7 -48 15 -85 8 -36 21 -102 30 -146 9 -44 22 -107 30 -140 7 -33
16 -75 19 -93 3 -18 12 -56 21 -85 l15 -52 176 1 c197 1 204 3 204 72 0 18 5
42 10 52 6 10 14 45 19 77 5 32 15 81 20 108 6 28 18 84 27 125 8 41 20 97 26
123 5 26 14 76 19 110 5 34 15 96 23 137 7 41 19 107 25 145 7 39 16 90 22
115 5 25 14 77 19 115 10 80 26 193 41 280 5 33 14 92 18 130 5 39 14 108 21
155 6 47 16 123 21 170 18 145 26 164 63 137 15 -11 16 -19 7 -53 -6 -21 -15
-97 -20 -169 -15 -195 -30 -349 -42 -450 -6 -49 -15 -157 -20 -240 -4 -82 -12
-222 -19 -310 -6 -88 -9 -311 -8 -495 l3 -334 232 -1 c185 0 234 3 238 13 7
19 6 2477 -1 2496 -5 14 -45 16 -340 16 l-334 0 -10 -25 c-9 -24 -15 -57 -46
-255 -8 -52 -21 -135 -29 -185 -30 -184 -45 -281 -49 -315 -7 -57 -34 -221
-45 -279 -6 -29 -11 -77 -11 -105 0 -28 -5 -69 -10 -91 -5 -22 -14 -137 -20
-255 -6 -118 -13 -223 -16 -232 -6 -20 -34 -31 -56 -23 -12 5 -16 37 -21 161
-7 185 -31 421 -62 624 -29 189 -50 315 -65 405 -6 33 -15 98 -20 143 -6 46
-13 88 -16 93 -3 5 -12 58 -21 117 -24 174 -28 196 -36 210 -11 17 -657 18
-675 0z"/>
<path d="M4105 29683 c-3 -16 -10 -44 -15 -63 -5 -19 -12 -60 -15 -90 -3 -30
-11 -75 -16 -100 -5 -25 -14 -76 -19 -115 -15 -122 -52 -356 -76 -488 -8 -42
-14 -93 -14 -112 0 -18 -5 -46 -10 -61 -6 -15 -15 -63 -20 -108 -10 -76 -23
-168 -50 -331 -6 -38 -18 -113 -26 -165 -8 -52 -21 -133 -29 -180 -8 -47 -15
-99 -15 -116 0 -17 -4 -44 -10 -60 -5 -16 -14 -65 -20 -109 -15 -119 -36 -253
-49 -314 -19 -91 -33 -86 231 -86 l233 0 12 36 c6 19 16 82 22 139 17 170 31
281 44 345 l12 60 180 0 180 0 8 -50 c21 -137 46 -325 57 -438 5 -43 11 -81
15 -85 10 -10 464 -7 474 4 6 5 6 25 1 49 -11 49 -29 166 -40 262 -5 40 -13
87 -18 105 -6 18 -13 64 -17 102 -3 38 -10 87 -15 110 -13 59 -51 305 -70 451
-6 44 -15 93 -20 109 -6 16 -10 43 -10 60 0 17 -7 69 -15 116 -8 47 -21 128
-29 180 -8 52 -20 127 -26 165 -30 186 -42 265 -49 325 -4 36 -13 88 -19 115
-13 60 -31 172 -42 274 -5 42 -14 78 -22 82 -7 5 -165 9 -350 9 l-338 0 -5
-27z m367 -445 c12 -10 17 -42 21 -153 3 -77 10 -171 16 -210 12 -77 27 -222
41 -385 5 -58 15 -135 21 -172 18 -99 19 -98 -115 -98 -85 0 -115 3 -119 13
-7 19 21 331 45 487 12 83 25 229 36 395 7 104 14 135 31 135 4 0 14 -6 23
-12z"/>
<path d="M5453 29699 c-10 -10 -13 -275 -13 -1255 0 -981 3 -1244 13 -1251 20
-16 458 -7 468 9 5 7 9 246 9 531 l0 518 87 -3 87 -3 9 -45 c5 -25 12 -49 17
-55 4 -5 11 -31 14 -57 4 -26 11 -50 17 -53 5 -4 9 -16 9 -28 0 -12 6 -42 14
-67 16 -51 38 -128 61 -215 9 -33 22 -82 30 -110 8 -27 21 -75 29 -105 38
-140 49 -178 62 -215 8 -23 14 -50 14 -60 1 -48 4 -49 250 -48 127 1 234 3
237 6 5 6 -11 84 -41 207 -9 36 -21 86 -26 112 -5 26 -13 56 -19 67 -6 11 -11
28 -11 39 0 11 -6 42 -14 68 -8 27 -19 69 -24 94 -13 58 -48 201 -66 265 -8
28 -17 69 -21 92 -4 24 -11 45 -16 49 -5 3 -9 14 -9 24 0 29 -36 93 -81 144
-41 47 -117 89 -181 101 -71 13 -40 46 60 65 24 4 49 13 55 19 6 6 17 11 23
11 20 0 95 54 134 97 64 69 90 117 124 232 19 62 22 262 5 326 -6 22 -14 56
-19 75 -11 47 -64 152 -102 204 -43 57 -128 125 -191 154 -28 13 -61 29 -71
34 -43 23 -158 30 -526 35 -301 3 -388 1 -397 -8z m706 -473 c78 -41 130 -140
130 -246 0 -57 -23 -139 -49 -175 -46 -63 -144 -100 -250 -93 l-55 3 -3 255
c-1 140 0 261 3 269 8 20 179 11 224 -13z"/>
<path d="M10255 29443 c-66 -6 -143 -28 -205 -57 -124 -57 -253 -218 -282
-351 -36 -164 -12 -284 87 -432 49 -73 50 -72 -12 -143 -111 -127 -223 -302
-223 -347 0 -10 -6 -25 -12 -31 -20 -20 -17 -293 4 -358 23 -72 62 -152 101
-206 37 -53 114 -138 125 -138 4 0 21 -13 39 -29 64 -56 192 -108 303 -124 90
-13 136 -13 215 -3 104 14 232 77 320 158 71 65 74 65 118 10 10 -12 24 -28
30 -35 22 -22 72 -83 92 -110 11 -15 25 -27 31 -27 6 0 32 26 57 58 25 31 56
68 69 82 52 56 98 118 98 133 0 8 -6 22 -12 29 -36 37 -168 207 -168 214 1 5
21 34 46 64 24 30 65 82 91 115 26 33 56 69 66 80 32 34 38 52 24 67 -7 7 -55
68 -106 135 -51 68 -97 125 -102 129 -11 6 -19 -2 -89 -91 -30 -38 -63 -79
-73 -90 -10 -11 -33 -39 -50 -63 -19 -27 -37 -42 -48 -40 -16 3 -75 74 -397
473 -53 66 -99 122 -102 125 -3 3 -30 37 -60 75 -30 39 -65 81 -77 95 -46 50
-44 156 3 210 16 18 49 41 74 52 85 37 142 7 225 -117 32 -48 65 -89 72 -92 8
-3 24 5 36 18 12 13 68 64 125 113 56 49 102 95 102 101 0 7 -7 18 -15 25 -8
7 -15 16 -15 21 0 19 -74 116 -129 169 -59 57 -146 110 -182 110 -11 0 -28 4
-37 9 -20 10 -114 18 -157 14z m-79 -1270 c22 -26 53 -63 69 -82 17 -20 47
-56 67 -81 20 -25 80 -97 132 -160 53 -63 96 -119 96 -126 0 -16 -65 -81 -113
-112 -38 -24 -51 -27 -142 -27 -92 0 -104 2 -154 30 -62 35 -136 114 -159 170
-21 52 -21 187 -1 237 22 54 131 198 150 198 10 0 34 -21 55 -47z"/>
<path d="M2650 26760 c-14 -4 -41 -8 -61 -9 -20 -1 -61 -8 -90 -17 -94 -29
-169 -54 -187 -63 -9 -5 -37 -19 -62 -32 -243 -120 -455 -339 -560 -576 -39
-88 -47 -107 -65 -168 -10 -33 -23 -71 -29 -84 -12 -27 -101 -81 -133 -81
l-23 0 0 -240 0 -239 66 -3 66 -3 19 -50 c10 -27 19 -59 19 -70 0 -11 7 -33
15 -49 8 -15 15 -35 15 -42 0 -8 13 -42 29 -76 16 -35 31 -70 35 -78 3 -8 15
-28 26 -45 11 -16 23 -37 27 -45 3 -8 14 -25 22 -36 9 -12 23 -32 31 -45 52
-79 170 -198 275 -275 130 -95 333 -183 473 -205 212 -32 280 -33 432 -8 402
68 713 299 876 649 56 120 106 322 85 343 -4 4 -120 6 -257 5 l-249 -3 -3 -25
c-4 -34 -18 -72 -61 -160 -59 -123 -197 -246 -331 -298 -19 -8 -84 -23 -145
-34 -108 -20 -112 -20 -219 -3 -60 10 -121 24 -135 31 -14 8 -30 14 -35 14
-45 0 -212 123 -274 201 -57 73 -53 66 -89 139 -62 127 -93 263 -93 404 0 97
23 238 48 299 7 16 12 33 12 38 0 5 4 17 10 27 5 9 14 28 20 42 34 85 180 250
260 295 100 54 149 72 250 91 94 17 154 17 255 0 153 -26 255 -77 354 -177 83
-82 171 -239 171 -303 0 -44 11 -46 259 -46 130 0 242 4 249 8 10 7 10 24 2
81 -6 40 -15 81 -20 91 -6 10 -10 26 -10 35 0 9 -7 33 -16 53 -8 21 -22 53
-31 72 -101 234 -287 428 -528 550 -54 28 -106 50 -115 50 -9 0 -20 4 -26 9
-12 12 -123 41 -199 53 -83 13 -324 19 -355 8z"/>
<path d="M6685 26761 c-16 -5 -49 -9 -71 -10 -91 -2 -351 -97 -431 -157 -17
-13 -35 -24 -38 -24 -4 0 -45 -29 -90 -65 -75 -58 -184 -172 -225 -235 -8 -12
-22 -32 -31 -44 -8 -11 -19 -28 -22 -36 -4 -8 -16 -28 -27 -45 -11 -16 -23
-37 -26 -45 -3 -8 -17 -37 -30 -65 -91 -192 -138 -517 -105 -714 28 -159 49
-253 61 -265 6 -6 10 -19 10 -29 0 -10 6 -31 14 -45 7 -15 28 -57 46 -94 56
-117 131 -220 235 -324 55 -55 129 -119 165 -142 36 -22 70 -45 76 -50 18 -16
160 -82 176 -82 7 0 18 -4 23 -9 10 -10 66 -26 150 -43 28 -5 73 -14 100 -20
59 -12 292 -6 385 10 65 11 230 61 266 80 10 6 39 20 64 32 132 64 305 211
399 339 70 95 135 226 164 331 32 114 37 136 40 170 l2 35 -248 3 c-193 2
-248 0 -251 -10 -40 -153 -91 -244 -192 -344 -81 -79 -200 -139 -327 -165
-114 -23 -179 -23 -282 -3 -94 19 -96 20 -200 70 -116 56 -244 185 -304 306
-70 143 -89 231 -89 413 0 197 29 317 112 455 114 191 279 304 493 340 93 15
139 15 238 1 70 -10 231 -63 245 -80 3 -3 23 -18 45 -33 124 -84 217 -225 261
-395 4 -17 473 -23 492 -7 15 12 2 82 -40 218 -85 275 -334 557 -588 667 -14
6 -33 15 -43 20 -50 26 -200 69 -282 81 -90 12 -286 18 -320 9z"/>
<path d="M4317 26743 c-4 -3 -7 -201 -7 -438 0 -399 -1 -434 -18 -469 -20 -40
-87 -93 -131 -102 -15 -3 -32 -7 -38 -10 -10 -2 -13 -59 -13 -239 l0 -235 83
0 c51 0 90 -5 100 -12 15 -12 17 -57 19 -508 l3 -495 520 0 520 0 0 220 0 220
-270 3 c-240 2 -271 4 -282 19 -10 12 -13 82 -13 265 0 236 1 249 20 268 20
20 32 21 251 19 127 0 232 1 234 3 3 3 7 389 5 466 0 9 -56 12 -245 12 -231 0
-245 1 -255 19 -6 12 -10 115 -10 265 0 233 1 247 20 266 19 19 33 20 280 20
l260 0 -2 223 -3 222 -511 3 c-281 1 -514 -1 -517 -5z"/>
<path d="M8255 26738 c-3 -7 -4 -573 -3 -1258 l3 -1245 240 0 240 0 3 1249 c2
993 0 1251 -10 1258 -7 4 -116 8 -241 8 -173 0 -229 -3 -232 -12z"/>
<path d="M9085 26738 c-3 -7 -4 -573 -3 -1258 l3 -1245 503 -3 502 -2 0 225 0
225 -247 0 c-137 0 -254 4 -260 8 -10 6 -13 231 -13 1029 -1 912 -2 1022 -16
1027 -9 3 -117 6 -240 6 -171 0 -226 -3 -229 -12z"/>
<path d="M10377 26743 c-4 -3 -7 -201 -7 -438 0 -399 -1 -434 -18 -469 -20
-40 -87 -93 -131 -102 -15 -3 -32 -7 -38 -10 -10 -2 -13 -59 -13 -239 l0 -235
89 0 c62 0 92 -4 100 -13 7 -10 12 -163 13 -508 l3 -494 520 0 520 0 0 220 0
220 -273 3 -273 2 -9 26 c-6 14 -10 133 -10 265 0 227 1 240 20 259 20 20 32
21 251 20 127 -1 233 1 235 3 4 3 6 336 4 465 0 9 -56 12 -245 12 l-245 0 -10
26 c-6 14 -10 133 -10 265 0 226 1 240 20 259 19 19 33 20 280 20 l259 0 3
215 c2 118 2 220 0 225 -4 11 -1024 14 -1035 3z"/>
<path d="M2690 25791 c-116 -26 -197 -125 -207 -251 -4 -54 -1 -75 17 -115 96
-216 377 -237 497 -37 25 43 28 56 28 139 -1 87 -2 93 -35 142 -52 77 -119
118 -200 125 -36 2 -81 1 -100 -3z"/>
<path d="M6702 25790 c-69 -15 -136 -71 -173 -146 -29 -59 -31 -70 -26 -136 5
-83 24 -125 78 -179 132 -132 350 -96 439 73 32 61 32 185 0 246 -60 114 -184
170 -318 142z"/>
</g>
</svg>
