<?xml version="1.0" encoding="utf-8"?>
<!DOCTYPE svg PUBLIC "-//W3C//DTD SVG 1.0//EN" "http://www.w3.org/TR/2001/REC-SVG-20010904/DTD/svg10.dtd">
<svg version="1.0" xmlns="http://www.w3.org/2000/svg" width="1364px" height="902px" viewBox="0 0 1364 902" preserveAspectRatio="xMidYMid meet">
 <g fill="black">
  <path d="M180.75 744.20 c-67.15 -6.70 -122.05 -54.45 -140.20 -122 -1.10 -4.10 -2.25 -8.75 -2.55 -10.30 l-0.55 -2.90 -10.35 -0.10 -10.35 -0.15 0 -33 0 -33 3.75 -0.35 c6.10 -0.65 10.20 -2.35 14.25 -6.05 3.35 -3 5.45 -6.65 7.15 -12.35 19.60 -65.10 74.65 -111.05 140.10 -116.95 8.10 -0.75 24.50 -0.65 32.50 0.20 62.25 6.55 113.85 48.25 131.05 106 2.10 7 4.65 19.30 5.20 25.15 l0.40 3.60 -33.60 0 -33.55 0 -0.30 -1.35 c-6.25 -28.35 -22.30 -49.55 -45.90 -60.85 -21.90 -10.50 -47.40 -12 -71.90 -4.25 -30.25 9.60 -53.20 35.05 -61.65 68.40 -3 12 -3.50 16.20 -3.50 32.05 0 15.95 0.55 21.10 3.60 32.40 8.95 33.70 31.85 58.40 62.90 67.85 10.85 3.35 15.60 4 29.25 4 12.80 0 15.45 -0.25 24.60 -2.55 9.85 -2.45 19.15 -6.60 27.50 -12.25 6.10 -4.15 16.65 -14.70 20.70 -20.70 6.85 -10.10 11.65 -21.40 14.40 -33.85 l0.30 -1.40 33.55 0 33.55 0 -0.30 3.40 c-0.60 5.70 -3.15 18.05 -5.05 24.60 -17.40 58.75 -69.60 100.75 -132.75 106.75 -9.25 0.90 -23.30 0.85 -32.25 -0.05z"/>
  <path d="M708.05 744.20 c-29.95 -2.95 -59.55 -15 -83.45 -34.05 -10 -7.95 -23.10 -22 -31.45 -33.65 -22.25 -31.20 -33.60 -73.45 -30.65 -113.75 3.35 -44.90 21.90 -84.50 53.50 -114 22.90 -21.35 52.65 -35.80 83.50 -40.50 13.25 -2 29.25 -2.40 42.50 -1 68.05 7.10 122.50 55.90 134.70 120.75 0.70 3.70 1.45 8.40 1.60 10.40 l0.35 3.60 -33.50 0 -33.50 0 -1.15 -4.60 c-8.95 -36.10 -35 -60.05 -71.25 -65.60 -11.60 -1.75 -22.40 -1.50 -34.25 0.75 -36.05 6.95 -63 33 -72.95 70.55 -3.15 11.95 -3.75 17.20 -3.75 32.90 0 12.55 0.10 15.05 1.10 20.75 6.95 40.25 30.80 69.05 65.85 79.65 10.80 3.25 19.80 4.35 32.90 3.95 14.95 -0.45 25.65 -3 37.85 -9.05 16.35 -8.15 28.60 -20.40 37.10 -37.05 2.85 -5.60 6.10 -14.55 7.65 -21.10 l0.90 -3.65 33.50 0 33.50 0 -0.35 3.65 c-0.15 2 -1 7 -1.80 11.10 -12.75 65.15 -67.70 113.60 -136 120 -9.35 0.90 -23.35 0.85 -32.45 -0.05z"/>
  <path d="M914 576 l0 -167 33 0 33 0 0 167 0 167 -33 0 -33 0 0 -167z"/>
  <path d="M395 675.75 l0 -66.75 -13.25 0 -13.25 0 0 -33.25 0 -33.25 2.90 0 c3.75 0 8.70 -1.20 11.70 -2.85 3.75 -2.05 8.45 -7.35 10.20 -11.45 l1.45 -3.45 0.15 -57.85 0.10 -57.90 69.25 0 69.25 0 0 30.75 0 30.75 -36.25 0 -36.25 0 0 36 0 36 33.50 0 33.50 0 0 33.25 0 33.25 -33.50 0 -33.50 0 0 35.75 0 35.75 37 0 37 0 0 31 0 31 -70 0 -70 0 0 -66.75z"/>
  <path d="M1023.75 741.90 c-0.15 -0.35 -0.20 -75.35 -0.15 -166.65 l0.15 -166 32.90 -0.15 32.85 -0.10 0 135.75 0 135.75 34.25 0 34.25 0 0 31 0 31 -67 0 c-53.15 0 -67.10 -0.15 -67.25 -0.60z"/>
  <path d="M1193.80 742.15 c-0.15 -0.20 -0.30 -30.20 -0.30 -66.75 l0 -66.40 -13.10 -0.10 -13.15 -0.15 0 -33 0 -33 4 -0.35 c4.70 -0.40 8.10 -1.45 11.40 -3.50 3.55 -2.25 7.55 -7 9.20 -10.80 l1.40 -3.35 0.15 -57.85 0.10 -57.90 69.25 0 69.25 0 0 30.75 0 30.75 -36.25 0 -36.25 0 0 36 0 36 33.50 0 33.50 0 0 33.25 0 33.25 -33.50 0 -33.50 0 0 35.75 0 35.75 37 0 37 0 0 31 0 31 -69.70 0 c-38.30 -0.05 -69.80 -0.20 -70 -0.35z"/>
  <path d="M182.50 607.25 c-7.10 -1.75 -13.15 -5.25 -18.15 -10.55 -3.90 -4.15 -5.80 -7.05 -7.70 -11.70 -2.10 -5.15 -2.85 -8.90 -2.80 -14.50 0.15 -14.90 8.45 -27.40 22.45 -33.80 11.20 -5.10 25.35 -3.80 35.65 3.30 10.70 7.35 17.25 20.45 16.40 32.80 -1.20 16.95 -12.65 30.60 -28.95 34.45 -3.90 0.90 -13.15 0.90 -16.90 0z"/>
  <path d="M711.75 607.25 c-17.10 -3.80 -29.95 -21.20 -28.60 -38.75 0.75 -9.40 4 -16.60 10.55 -23.40 5.50 -5.75 11.85 -9.25 19.55 -10.85 16.70 -3.45 34.60 6 41.30 21.80 2.10 4.95 2.95 9.05 2.95 14.80 0 10.85 -3.65 19.40 -11.55 26.95 -5.40 5.10 -10.45 7.85 -17.25 9.45 -3.95 0.90 -12.75 0.90 -16.95 0z"/>
  <path d="M894.75 355.65 c-41.75 -1.45 -78.65 -17.15 -108.45 -46.10 -8.90 -8.65 -20.45 -23.85 -27.45 -36.05 -8.10 -14.20 -15.35 -33.55 -18.70 -49.85 l-0.90 -4.15 -10.35 0 -10.40 0 0 -33.25 0 -33.25 2.45 0 c6.35 0 11.70 -2.20 16.30 -6.75 3.40 -3.30 4.65 -5.70 6.85 -12.75 2.95 -9.30 6 -16.90 10.65 -26.25 23.30 -47.10 66.45 -79.50 117.25 -88 85.15 -14.20 164.35 39.20 179.20 120.75 0.65 3.70 1.35 8.05 1.50 9.65 l0.30 2.85 -33.60 -0.10 -33.55 -0.15 -1.20 -4.70 c-1.90 -7.65 -3.50 -11.90 -7.20 -19.30 -11.40 -22.90 -30.40 -38 -55.70 -44.20 -8.30 -2 -11.25 -2.30 -23.50 -2.30 -13.15 0.05 -18.75 0.80 -28.55 3.80 -31.85 9.70 -55.15 35.10 -63.70 69.45 -7 28.30 -4.55 57.80 6.90 82.65 11.20 24.20 32.90 42.85 57.85 49.75 28.30 7.85 56.70 3.90 79.10 -11 7.15 -4.75 17.10 -14.65 21.75 -21.65 5.85 -8.75 10.15 -18.45 12.85 -28.95 l1.45 -5.55 33.45 0 33.40 0 -0.15 2.75 c-0.25 4.60 -2.90 17.85 -5 25 -16 54.45 -62.20 95 -119.85 105.20 -9.85 1.70 -23.95 2.80 -33 2.45z"/>
  <path d="M17.50 186.25 l0 -166.75 46.20 0 46.20 0 0.30 1.40 c0.15 0.75 1.75 10.55 3.55 21.85 1.80 11.30 6.55 40.90 10.50 65.80 8.65 54.20 8.35 52.35 9.95 66.45 2.10 18.60 3.95 43.40 5.10 69.40 l0.35 7.65 3.80 -0.15 3.80 -0.15 0.35 -7.50 c2 -42.75 4.60 -68.65 10.85 -108.65 2.20 -13.95 7.15 -45.50 11.05 -70.10 3.85 -24.60 7.15 -45.05 7.25 -45.35 0.15 -0.50 9.90 -0.65 46.50 -0.65 l46.25 0 0 166.75 0 166.75 -33 0 -33 0 0 -24.60 c0 -45.45 1.65 -81.95 6.25 -139.90 1.70 -21.50 6.10 -69.10 8.50 -92.20 1.70 -16 1.80 -14.65 -1.30 -14.90 -1.40 -0.05 -2.65 0 -2.75 0.15 -0.10 0.20 -0.95 6.90 -1.95 14.90 -5.05 42.30 -15.05 109.05 -22.80 152.30 -4.10 23.10 -10.65 56.35 -17.10 86.75 l-3.65 17.25 -25.30 0.15 -25.25 0.10 -1.05 -5.10 c-0.55 -2.85 -2.95 -14.15 -5.30 -25.15 -8.95 -42.35 -15.60 -78.55 -23 -125.25 -4.95 -31.40 -11.55 -78.25 -14.40 -102.15 l-1.60 -13.85 -2.95 0 -2.95 0 0.30 1.85 c1 6.60 7.85 79.95 10.05 107.40 4.35 55.30 5.30 75.45 5.60 122.65 l0.25 39.60 -32.80 0 -32.80 0 0 -166.75z"/>
  <path d="M299.50 352.05 c0 -0.55 3.05 -20.40 6.75 -44.15 3.70 -23.75 8.15 -51.90 9.80 -62.65 1.65 -10.70 10.30 -65.85 19.15 -122.50 l16.10 -103 47.10 -0.15 c31.75 -0.05 47.10 0.05 47.10 0.40 0 0.45 8.15 52.80 22.50 144.50 4.60 29.45 13.60 86.90 24.50 156.75 2.45 15.95 4.65 29.60 4.80 30.40 l0.30 1.35 -33.05 0 c-27.65 0 -33.05 -0.10 -33.05 -0.70 0 -0.35 -2.15 -17.30 -4.75 -37.60 -2.60 -20.35 -4.75 -37.25 -4.75 -37.60 0 -0.50 -4.90 -0.60 -23.60 -0.50 l-23.65 0.15 -4.85 37.75 c-2.65 20.75 -4.85 37.90 -4.90 38.15 0 0.20 -14.75 0.35 -32.75 0.35 -32 0 -32.75 0 -32.75 -0.95z m114.50 -137.25 c0 -0.10 -2.70 -25.25 -6 -55.85 -4.30 -40.10 -6.05 -58.30 -6.25 -64.95 -0.15 -5.10 -0.40 -10 -0.55 -10.85 -0.25 -1.60 -0.30 -1.65 -2.90 -1.65 l-2.65 0 -0.60 11.90 c-0.40 7.65 -2.70 31.10 -6.50 66.35 -3.25 30 -5.80 54.65 -5.70 54.90 0.20 0.35 31.15 0.55 31.15 0.15z"/>
  <path d="M527.50 352.75 c0 -0.15 0 -74.95 0 -166.25 0 -91.30 0 -166.20 0 -166.50 0 -0.70 97.55 -0.70 104.55 0 21.75 2.10 39.45 10.90 52.35 26 12.80 15 19.65 33.90 20.45 56.50 0.80 23.20 -4.50 41.20 -16.55 55.90 -8.15 10 -22.15 17.95 -35.90 20.40 -6.70 1.15 -6.90 1.30 -6.90 3.70 0 2 0 2 1.95 2 2.70 0 7.60 1.20 11.55 2.80 10.15 4.10 19.65 13.85 24.35 24.85 1.10 2.65 7 25.45 18.65 72.20 9.35 37.55 17 68.40 17 68.45 0 0.10 -14.80 0.20 -32.90 0.20 l-32.85 0 -2.65 -9.60 c-1.45 -5.30 -6.30 -22.90 -10.80 -39.15 -4.45 -16.20 -12.05 -43.60 -16.80 -60.85 l-8.70 -31.40 -10.65 0 -10.65 0 0 70.50 0 70.50 -32.75 0 c-18 0 -32.75 -0.10 -32.75 -0.25z m87.75 -202.95 c14 -2.75 22.10 -12.65 23.70 -28.90 1.95 -19.90 -6.90 -34.95 -22.70 -38.65 -2.40 -0.55 -6.05 -0.75 -13.30 -0.75 l-9.95 0 0 34.50 0 34.50 9.40 0 c5.90 0 10.65 -0.25 12.85 -0.70z"/>
  <path d="M1269.55 336.20 l-12.65 -15.80 -4.85 4.70 c-7.30 7.20 -13 11.35 -21.10 15.40 -17.50 8.80 -41.10 11.10 -61.60 5.95 -19.75 -4.95 -38.60 -17.50 -51.40 -34.20 -17.90 -23.30 -23.60 -55.25 -14.70 -82.05 4.65 -14.10 12.75 -26.15 33.45 -50.15 3.25 -3.75 4.35 -5.35 4 -5.85 -0.25 -0.35 -2.65 -3.75 -5.40 -7.50 -7.10 -9.85 -10.65 -17.45 -13.10 -27.95 -0.75 -3.20 -0.95 -5.85 -0.90 -13.25 0 -8.35 0.15 -9.80 1.40 -15 2.70 -11.05 7.15 -20.20 14.20 -29.25 8.40 -10.85 20.35 -19.20 33.85 -23.70 11.80 -3.90 25.15 -4.55 37.75 -1.85 18.40 4 28 11.40 49.60 38.20 4.20 5.20 4.90 6.30 4.35 6.85 -2.05 2 -36.70 31.75 -36.95 31.70 -0.15 0 -4.50 -5.35 -9.75 -11.85 -5.30 -6.60 -10.55 -12.60 -11.85 -13.60 -5.95 -4.45 -13.65 -5.05 -20.80 -1.60 -7.85 3.85 -13.15 12.60 -12.45 20.70 0.45 5.45 1.75 7.90 9.50 17.45 3.90 4.85 10.70 13.30 15.10 18.75 4.45 5.50 18.95 23.45 32.25 39.95 33.65 41.75 34.10 42.25 34.60 42.25 0.25 0 8.80 -7.25 18.95 -16.05 10.20 -8.85 18.55 -16 18.65 -15.90 0.55 0.75 23.55 29.50 27.65 34.55 2.85 3.50 5.15 6.60 5.15 6.85 0 0.35 -29.40 26.05 -36.20 31.60 -0.95 0.80 -0.60 1.35 11.95 16.90 l12.90 16.10 -1.20 1.15 c-1.50 1.50 -37.45 32.30 -37.65 32.30 -0.05 0 -5.80 -7.10 -12.75 -15.80z m-69.95 -43.40 c4.10 -1 7.20 -2.25 10.65 -4.25 3.05 -1.75 9.10 -6.45 11.15 -8.65 l1.10 -1.20 -23.30 -30 c-12.80 -16.45 -23.70 -30.40 -24.25 -30.90 -0.85 -0.95 -0.95 -0.90 -4.35 1.85 -7.75 6.35 -14.35 14.40 -16.95 20.60 -2.80 6.65 -3.60 19.10 -1.70 26.25 1.95 7.50 5.50 13.35 11.05 18.30 5.40 4.80 9.40 6.90 16.25 8.50 3.70 0.85 16.15 0.55 20.35 -0.50z"/>
 </g>
 <g fill="black">
  <path d="M220.50 881.30 c0 -0.15 1.10 -2.10 2.50 -4.40 l2.50 -4.15 0 -18.05 0 -18 -2.55 -3.75 c-1.40 -2.05 -2.90 -4.10 -3.35 -4.60 -0.40 -0.45 -0.65 -0.95 -0.55 -1 0.40 -0.35 13.85 -7.35 14.10 -7.35 0.10 0 0.35 1.75 0.55 3.90 0.20 2.10 0.45 4.95 0.65 6.25 l0.30 2.40 1.55 -2.80 c1.95 -3.55 4.85 -6.45 8.05 -8.15 2.20 -1.20 3.10 -1.35 7.25 -1.35 5.65 0 8.15 0.90 11.90 4.45 4.40 4.10 6.60 10.70 6.60 19.60 0 5.45 -0.70 8.75 -2.70 12.95 -4.60 9.60 -14.95 13.75 -23.95 9.60 -2.65 -1.20 -6.35 -4.35 -7.95 -6.85 -0.80 -1.20 -0.85 -0.95 -0.85 5.80 l-0.05 7.05 2.50 4.15 c1.40 2.30 2.50 4.25 2.50 4.35 0 0.05 -4.25 0.15 -9.50 0.15 -5.20 0 -9.50 -0.10 -9.50 -0.20z m30.70 -21.85 c5.90 -1.65 8.80 -7.80 8.15 -17.25 -0.70 -9.60 -5 -13.65 -13.85 -13.05 -3.80 0.25 -6.40 1.20 -9.60 3.45 l-1.40 0.95 0 10.40 0 10.35 1.40 1.30 c3.80 3.65 10.25 5.25 15.30 3.85z"/>
  <path d="M184 867.95 c-5.60 -1.10 -11.70 -5.85 -14.20 -11.10 -2.90 -6.15 -3.55 -13.30 -1.80 -20.05 2.55 -10 9.70 -16.10 19.40 -16.70 11.55 -0.65 20.30 5.70 22.85 16.55 0.95 4 0.95 11.35 0 15 -3.15 12.15 -13.75 18.75 -26.25 16.30z m16.45 -12.20 c0.70 -5 0.70 -13 0 -16.35 -0.65 -3.05 -2.20 -5.70 -4.40 -7.55 -2.70 -2.25 -9.65 -4.35 -14.65 -4.35 -1.60 0 -1.90 0.20 -2.35 1.65 -1.80 5.70 -2.30 16.55 -0.90 20.95 1.95 6.40 7.55 9.80 17.80 10.85 3.85 0.35 3.70 0.55 4.50 -5.20z"/>
  <path d="M355 867.80 c-9.60 -2.80 -14.45 -10.35 -14.50 -22.60 0 -5.85 0.75 -9.70 2.60 -13.65 3.80 -8 10.50 -11.95 19.45 -11.45 9.10 0.55 15.40 5.70 15.45 12.65 0 5.25 -3.15 8.75 -7.90 8.75 -4.15 0 -6.40 -4.10 -4.35 -7.95 1 -1.95 3.05 -2.65 6.95 -2.45 1.80 0.05 3.30 0 3.30 -0.15 0 -0.70 -5.10 -2.45 -8.25 -2.90 -5.85 -0.85 -11.55 0.85 -14.20 4.30 -1.80 2.25 -2.75 6.40 -2.75 12.15 -0.05 4.85 0.10 5.50 1.45 8.25 1.05 2.05 2.15 3.40 3.65 4.40 4.65 3.15 12.75 3 19.20 -0.30 l3.35 -1.75 -1 2.60 c-0.55 1.40 -1.65 3.35 -2.40 4.25 -1.70 2.20 -5.55 4.85 -7.95 5.55 -2.95 0.90 -9.60 1.05 -12.10 0.30z"/>
  <path d="M430 867.80 c-3.85 -1.15 -4.75 -1.65 -7.60 -4.25 -4.70 -4.30 -6.90 -10.05 -6.90 -18.10 0 -10.95 4.65 -20.25 11.90 -23.80 4 -1.95 11 -2.25 15.30 -0.65 5.10 1.95 8.55 5.95 10.10 11.75 0.70 2.55 0.95 9.55 0.40 10.95 -0.25 0.70 -1.95 0.80 -13.80 0.80 l-13.55 0 0.25 3.20 c0.30 3.70 2.30 7.80 4.55 9.40 4.55 3.25 12.55 3.15 19.50 -0.25 3.10 -1.55 3.35 -1.60 3.05 -0.65 -1.50 4.85 -5.45 9.10 -10.10 10.80 -3.55 1.35 -10.05 1.75 -13.10 0.80z m4.45 -27.30 c4 -1.15 7.70 -2.15 8.25 -2.35 0.80 -0.20 0.90 -0.60 0.60 -2.85 -0.35 -3.10 -2.30 -6.10 -4.90 -7.40 -2.20 -1.15 -6.85 -1.90 -9.10 -1.45 -1.35 0.30 -1.60 0.65 -2.20 2.80 -0.35 1.40 -0.80 4.90 -1 7.90 -0.30 4.50 -0.25 5.35 0.35 5.35 0.40 0 4 -0.90 8 -2z"/>
  <path d="M551.40 867.70 c-2.75 -0.85 -5.55 -3.35 -6.70 -6.10 -1.05 -2.35 -1.05 -7.80 -0.10 -10.15 2.55 -5.95 10.25 -9.45 20.95 -9.45 l3.95 0 0 -2.65 c0 -6.90 -3.40 -10.90 -9.90 -11.70 -2.85 -0.30 -10.10 0.25 -10.10 0.80 0 0.20 0.90 0.65 1.95 1 4.30 1.25 5.90 5.75 3.10 8.60 -1.20 1.15 -1.90 1.45 -3.65 1.45 -2.60 0 -4.25 -1.05 -5.20 -3.30 -0.95 -2.25 -0.90 -3.70 0.30 -6.90 2.05 -5.40 7.25 -8.80 14.05 -9.20 7.95 -0.45 13.40 2.20 16.50 8.10 1.85 3.45 2.45 7.90 2.45 18.35 l0 9.85 2.25 4.80 c1.50 3.30 2.05 4.90 1.60 5 -0.30 0.15 -2.40 0.45 -4.60 0.80 -2.20 0.30 -4.70 0.70 -5.60 0.85 l-1.55 0.25 -0.35 -3.95 c-0.50 -5.95 -0.65 -6.25 -2.05 -3.55 -3.15 6.25 -10.40 9.20 -17.30 7.10z m15 -9 l2.85 -1.45 0.15 -6.85 0.15 -6.90 -4.05 1.50 c-8.70 3.20 -12 5.95 -12 10.05 0 1.60 1.45 4.25 2.65 4.90 1.90 0.95 7.05 0.30 10.25 -1.25z"/>
  <path d="M702 867.80 c-6.95 -1.55 -11.50 -6.25 -11.50 -11.80 0 -4 2.60 -6.50 6.10 -5.80 2.35 0.45 3.40 1.65 3.40 3.80 0 2.55 -1.70 4.05 -4.95 4.40 -1.40 0.10 -2.45 0.40 -2.30 0.60 0.50 0.80 7.25 1.70 12.75 1.70 4.60 0.05 6.15 -0.15 7.65 -0.90 3.70 -1.80 4.30 -5.85 1.15 -7.75 -0.90 -0.60 -3.85 -1.60 -6.60 -2.35 -8.70 -2.30 -13.90 -5.35 -16 -9.30 -1.10 -2.10 -1.40 -6.90 -0.70 -9.95 0.55 -2.20 1.20 -3.20 3.45 -5.50 3.35 -3.30 6.05 -4.40 11.80 -4.80 7.30 -0.50 12.70 1.60 15.90 6.15 2.10 3 2.45 7.70 0.75 10.20 -2.10 3.05 -5.75 3.20 -7.70 0.25 -1.75 -2.70 0.70 -6.10 4.90 -6.75 l2.15 -0.35 -1.40 -0.55 c-4.30 -1.80 -15.60 -2.05 -18.75 -0.40 -2.75 1.40 -3.40 4.15 -1.55 6.50 1.40 1.80 3.30 2.70 8.65 4.15 5.30 1.40 9.85 3.40 12.20 5.40 3.50 2.95 4.95 8.50 3.40 13.15 -2.65 8 -12.40 12.20 -22.80 9.90z"/>
  <path d="M742.75 868.05 c-6.65 -1.65 -10.20 -8.40 -8.10 -15.60 1.90 -6.45 8.15 -9.75 19.55 -10.30 l5.95 -0.30 -0.30 -3.15 c-0.55 -5.80 -2.85 -9.20 -7 -10.45 -2.65 -0.80 -6.95 -0.90 -11.10 -0.30 -2.75 0.40 -2.75 0.40 1.50 2.05 0.70 0.25 1.70 1.20 2.25 2.10 2.70 4.30 -2.35 9.05 -7.20 6.85 -2.85 -1.30 -3.60 -6.45 -1.60 -10.70 1.30 -2.85 3.25 -4.65 7 -6.65 2.30 -1.20 3.05 -1.35 8.05 -1.35 4.70 0 5.85 0.15 8 1.15 3.40 1.55 5.90 4.15 7.55 7.80 1.40 3 1.40 3.25 1.70 15.30 l0.30 12.25 2.15 4.45 c1.15 2.45 1.95 4.60 1.70 4.80 -0.50 0.45 -11.25 2.10 -11.55 1.75 -0.15 -0.10 -0.45 -2.35 -0.75 -5 l-0.50 -4.75 -1.60 2.85 c-3.25 5.95 -9.55 8.75 -16 7.20z m13.80 -9.10 c1.45 -0.65 2.70 -1.55 2.95 -2.15 0.20 -0.60 0.40 -3.80 0.45 -7.20 l0.10 -6.20 -1.15 0.35 c-2.55 0.80 -10.05 4.25 -11.65 5.30 -2.25 1.55 -3.25 3.40 -3.25 6.05 0 2.35 1 4.20 2.70 4.95 1.65 0.70 7 0.10 9.85 -1.10z"/>
  <path d="M901.40 867.80 c-4.40 -1.20 -7.10 -4 -8.95 -9.30 -0.95 -2.75 -1.15 -4.75 -1.40 -13 l-0.30 -9.75 -2.95 -4.15 c-1.60 -2.30 -2.80 -4.25 -2.70 -4.35 0.35 -0.35 16.50 -7.30 16.65 -7.15 0.05 0.10 -0.20 2.65 -0.55 5.65 -0.35 3.05 -0.65 10.15 -0.70 15.80 0 11.65 0.45 14.30 3 16.70 1.50 1.45 1.75 1.50 5.90 1.50 4.85 0 7 -0.80 10 -3.75 l1.60 -1.60 0 -8.85 0 -8.85 -2.55 -3.75 c-1.40 -2.05 -2.90 -4.10 -3.35 -4.60 -0.40 -0.45 -0.65 -0.95 -0.55 -1.05 0.20 -0.20 10.25 -4.80 13.80 -6.35 l2.15 -0.90 -0.35 16.35 -0.30 16.35 2.85 5.70 c1.60 3.10 2.75 5.75 2.65 5.85 -0.10 0.15 -2.80 1.10 -6.05 2.15 -5.75 1.95 -5.80 2 -6.05 0.90 -0.15 -0.60 -0.70 -3.40 -1.20 -6.25 -0.85 -4.75 -1.55 -6.95 -1.55 -4.95 0 1.90 -3.10 7.35 -5.25 9.25 -3.30 2.90 -8.55 3.80 -13.85 2.40z"/>
  <path d="M1016.35 868 c-7.05 -1.80 -12.35 -7.85 -14.10 -16.25 -1 -4.65 -0.95 -8.10 0.20 -13.50 1.70 -8.20 5.30 -13.55 10.95 -16.35 3.15 -1.55 3.60 -1.65 8.85 -1.65 5 0 5.75 0.10 8.35 1.40 3.35 1.65 5.55 4 7.35 7.85 1.10 2.40 1.30 3.55 1.45 8.90 l0.20 6.10 -13.85 0 -13.90 0 0.30 2.50 c1 8.30 5.55 12.50 13.55 12.50 3.50 0 8.60 -1.30 11.20 -2.80 1.20 -0.70 2.30 -1.20 2.40 -1.05 0.35 0.35 -1.15 3.85 -2.60 5.90 -1.60 2.30 -4.75 4.55 -7.95 5.65 -3 1 -9.75 1.45 -12.40 0.80z m13.55 -30.25 c0.10 -0.10 -0.05 -1.40 -0.40 -2.90 -0.70 -3.35 -3.10 -6.40 -6.05 -7.55 -2.60 -1.05 -8.90 -1.20 -9.45 -0.25 -0.65 0.95 -1.45 6.15 -1.80 11.30 l-0.35 4.55 8.95 -2.45 c4.90 -1.40 9 -2.60 9.10 -2.70z"/>
  <path d="M1124.35 868 c-2.75 -0.70 -5.60 -2.30 -7.95 -4.40 -4.25 -3.80 -6.35 -8.80 -6.75 -16.10 -0.70 -11.85 3.95 -22 11.80 -25.85 2.55 -1.30 3.30 -1.40 8.55 -1.40 5.05 0 6 0.15 8 1.20 6.30 3.30 9.50 9.20 9.50 17.65 0 2.10 -0.15 4.15 -0.30 4.60 -0.25 0.70 -1.95 0.80 -13.80 0.80 l-13.55 0 0.30 3.05 c0.35 4.05 2.30 7.95 4.80 9.60 4.90 3.25 12.20 3.15 19.20 -0.30 3.10 -1.55 3.35 -1.60 3.05 -0.65 -1.50 4.85 -5.45 9.10 -10.10 10.80 -3.20 1.20 -9.85 1.70 -12.75 1z m4.15 -27.50 c4 -1.15 7.65 -2.15 8.20 -2.30 0.80 -0.25 0.90 -0.65 0.60 -2.90 -0.35 -3.10 -2.30 -6.10 -4.85 -7.40 -2.30 -1.20 -6.35 -1.85 -8.80 -1.45 -1.80 0.30 -1.90 0.40 -2.50 3.05 -0.35 1.50 -0.80 5.05 -1.05 7.90 -0.30 4.40 -0.25 5.10 0.40 5.10 0.40 0 4 -0.90 8 -2z"/>
  <path d="M293.05 867.15 c-2.95 -1.05 -5.70 -3.95 -7.10 -7.45 -1.05 -2.75 -1.15 -3.90 -1.35 -15.35 l-0.20 -12.40 -2.70 -2.30 c-1.50 -1.30 -2.70 -2.55 -2.70 -2.80 0 -2.20 14.45 -18.10 15.50 -17.05 0.30 0.30 0.30 2.45 0 5.70 -0.25 2.90 -0.40 5.25 -0.35 5.30 0.05 0 2.30 1.35 5 2.95 2.70 1.60 4.70 3.05 4.50 3.25 -0.20 0.20 -2.50 1.10 -5.05 2 l-4.70 1.65 0.20 11.05 c0.25 12.70 0.45 13.55 5.25 21.50 1.45 2.45 2.65 4.55 2.65 4.65 0 0.50 -7.05 -0.05 -8.95 -0.70z"/>
  <path d="M643.50 867.55 c-4.95 -1.55 -7.80 -5.10 -8.95 -11.30 -0.30 -1.60 -0.55 -7.70 -0.55 -13.55 l0 -10.60 -2.75 -2.35 c-1.50 -1.30 -2.75 -2.65 -2.75 -3 0 -2.45 14.10 -17.85 15.55 -16.95 0.25 0.15 0.35 1 0.25 1.85 -0.15 0.90 -0.40 3.30 -0.55 5.35 l-0.25 3.80 5 2.90 c4.30 2.55 5.65 3.80 4 3.80 -0.25 0 -2.40 0.70 -4.75 1.55 l-4.35 1.55 0.20 11.35 c0.15 10.35 0.30 11.50 1.30 14 1 2.40 3.95 7.75 6 10.95 l0.70 1.10 -3.40 -0.05 c-1.90 0 -4 -0.20 -4.70 -0.40z"/>
  <path d="M1062.95 867.30 c-3.70 -1.30 -5.35 -2.75 -6.95 -5.95 -1.95 -4.05 -2.55 -8.65 -2.45 -20.35 0 -7.50 -0.10 -9.30 -0.70 -9.75 -0.40 -0.25 -1.65 -1.35 -2.80 -2.40 l-2.15 -1.90 2.20 -3.35 c2.50 -3.95 11.85 -13.60 13.10 -13.60 0.80 0 0.80 0.50 0.50 5.40 l-0.35 5.40 4.90 2.90 c2.65 1.60 4.65 3.10 4.40 3.30 -0.20 0.20 -2.50 1.10 -5.10 2 l-4.65 1.70 0.20 10.75 c0.20 10.25 0.30 11 1.55 14.20 0.75 1.90 2.45 5.30 3.85 7.60 1.35 2.25 2.50 4.30 2.50 4.45 0 0.55 -6.25 0.25 -8.05 -0.40z"/>
  <path d="M312.05 866.40 c0.35 -0.65 1.45 -2.50 2.55 -4.20 l1.90 -3.05 0 -11.40 0 -11.35 -2.75 -3.95 c-1.55 -2.20 -2.90 -4.25 -3.05 -4.65 -0.15 -0.45 2.05 -1.70 6.90 -3.95 3.95 -1.80 7.45 -3.35 7.80 -3.45 0.50 -0.10 0.60 3.85 0.60 19.45 l0 19.65 2.45 4 2.50 4 -9.75 0 -9.75 0 0.60 -1.10z"/>
  <path d="M389 863.45 l2.50 -4.05 0 -11.60 0 -11.65 -3.05 -4.35 c-1.70 -2.40 -2.95 -4.45 -2.85 -4.55 0.15 -0.15 15.40 -7.25 15.55 -7.25 0.05 0 0 8.80 -0.05 19.55 l-0.20 19.55 1.90 3.05 c1.05 1.70 2.20 3.60 2.60 4.25 l0.70 1.10 -9.80 0 -9.80 0 2.50 -4.05z"/>
  <path d="M463.55 866.40 c0.35 -0.65 1.45 -2.50 2.55 -4.20 l1.90 -3.05 0 -11.40 0 -11.35 -3 -4.45 c-1.65 -2.40 -3 -4.60 -3 -4.80 0 -0.40 13.50 -7.35 13.75 -7.05 0.10 0.10 0.40 2.40 0.75 5.15 0.35 2.75 0.70 5.10 0.80 5.20 0.10 0.10 0.35 -0.25 0.55 -0.75 0.80 -2.15 3.85 -5.70 6.05 -7.15 3.15 -2 6.35 -2.75 10.80 -2.45 6.35 0.40 9.70 3.20 11.90 9.90 0.95 2.85 1.10 4.85 1.35 16.50 l0.30 13.25 2.40 3.75 2.35 3.75 -5 0.15 c-2.80 0.05 -7.15 0.05 -9.75 0 l-4.65 -0.15 2.45 -4 2.45 -3.95 0 -11.05 c0 -12 -0.50 -15.10 -2.60 -17.15 -3.75 -3.45 -10.70 -3.45 -16.25 0.05 l-2.15 1.35 0 13.50 0 13.45 2.25 3.70 c1.25 2.05 2.25 3.85 2.25 4.05 0 0.15 -4.30 0.30 -9.50 0.30 l-9.55 0 0.60 -1.10z"/>
  <path d="M592.55 866.40 c0.35 -0.65 1.45 -2.50 2.55 -4.20 l1.90 -3.05 0 -11.35 0 -11.40 -3.10 -4.45 c-1.70 -2.45 -2.90 -4.60 -2.75 -4.80 0.70 -0.70 12.60 -7.05 12.90 -6.85 0.15 0.10 0.45 2.25 0.65 4.80 0.20 2.55 0.45 5.75 0.65 7.05 l0.30 2.45 1.10 -3.20 c2.65 -7.55 6.15 -11.40 10.35 -11.40 5.15 0 5.85 6.30 1.15 10.35 -1.10 0.95 -4.20 2.80 -6.85 4.05 l-4.90 2.35 0 11.40 0 11.35 2.50 4 2.45 4 -9.75 0 -9.75 0 0.60 -1.10z"/>
  <path d="M661 867.30 c0 -0.15 1.15 -2.10 2.50 -4.35 l2.50 -4.10 0 -11.20 0 -11.20 -3.05 -4.30 c-1.65 -2.30 -2.95 -4.45 -2.85 -4.70 0.15 -0.40 10.75 -5.60 14.25 -6.95 l1.10 -0.45 -0.30 19.20 -0.30 19.20 2.55 4.30 c1.45 2.40 2.60 4.40 2.60 4.55 0 0.10 -4.25 0.20 -9.50 0.20 -5.20 0 -9.50 -0.10 -9.50 -0.20z"/>
  <path d="M782.50 867.20 c0 -0.20 1 -2 2.25 -4 l2.20 -3.70 0.05 -11.70 0.05 -11.75 -3 -4.45 c-2.20 -3.35 -2.85 -4.65 -2.40 -4.95 0.35 -0.30 3.50 -1.85 7 -3.55 4.25 -2.05 6.45 -2.85 6.60 -2.45 0.10 0.35 0.40 2.70 0.60 5.30 l0.40 4.65 2 -2.90 c3.65 -5.30 8.20 -7.70 14.60 -7.70 5.25 0 9.50 2.35 11.65 6.55 2.10 4.10 2.60 7.60 2.65 20.45 l0.10 12.25 2.60 4.15 2.60 4.10 -9.70 0 c-5.35 0 -9.75 -0.10 -9.75 -0.20 0 -0.15 1.15 -2.10 2.50 -4.35 l2.50 -4.10 0 -10.30 c0 -13.95 -0.85 -16.90 -5.35 -19.10 -1.85 -0.90 -2.85 -1.05 -5.80 -0.85 -3.65 0.25 -5.80 1.05 -8.70 3.25 l-1.65 1.20 0 13.05 0 13.05 1.90 3.05 c1.10 1.70 2.20 3.55 2.55 4.20 l0.60 1.10 -9.55 0 c-5.20 0 -9.50 -0.15 -9.50 -0.30z"/>
  <path d="M861 867.15 c0 -0.15 1.05 -2 2.40 -4.10 l2.35 -3.80 0.15 -20.80 0.15 -20.75 -2.75 -4.25 c-1.50 -2.30 -2.60 -4.35 -2.40 -4.55 0.45 -0.45 13.40 -5.90 13.95 -5.90 0.25 0 0.35 12.60 0.20 28 l-0.15 28 2.55 4 c1.40 2.20 2.55 4.15 2.55 4.25 0 0.15 -4.25 0.25 -9.50 0.25 -5.20 0 -9.50 -0.15 -9.50 -0.35z"/>
  <path d="M944.30 866.90 c0.20 -0.35 1.35 -2.25 2.50 -4.20 l2.20 -3.55 0 -11.45 0 -11.45 -3 -4.45 c-1.65 -2.45 -3 -4.60 -3 -4.75 0 -0.40 13.55 -7.20 13.80 -6.90 0.10 0.10 0.40 2.40 0.75 5.15 0.30 2.70 0.60 5.05 0.75 5.15 0.10 0.10 0.35 -0.25 0.55 -0.75 0.75 -1.95 3.70 -5.60 5.60 -6.85 3.25 -2.15 6.60 -3 10.95 -2.75 6.65 0.40 9.95 3.05 12.20 9.85 0.95 2.90 1.10 4.85 1.35 16.55 l0.30 13.25 2.40 3.70 c1.30 2 2.30 3.75 2.20 3.85 -0.10 0.15 -4.50 0.15 -9.75 0.10 l-9.55 -0.15 2.45 -3.90 2.50 -3.85 0 -11.15 c0 -12.10 -0.45 -15.20 -2.60 -17.25 -3.75 -3.45 -10.35 -3.50 -15.95 0 l-2.45 1.50 0 13.45 0 13.45 2.50 4 2.50 4 -9.80 0 c-7.65 0 -9.70 -0.15 -9.40 -0.60z"/>
  <path d="M1083 863.45 l2.50 -4.05 0 -11.60 0 -11.65 -3.05 -4.35 c-1.65 -2.45 -2.95 -4.45 -2.85 -4.55 0.15 -0.15 15.40 -7.25 15.55 -7.25 0.05 0 0 8.80 -0.05 19.55 l-0.20 19.50 1.90 3.10 c1.05 1.70 2.20 3.60 2.60 4.25 l0.70 1.10 -9.80 0 -9.80 0 2.50 -4.05z"/>
  <path d="M1157.30 866.90 c0.20 -0.35 1.35 -2.25 2.50 -4.20 l2.20 -3.55 0 -11.45 0 -11.45 -3 -4.25 c-1.65 -2.35 -3 -4.40 -3 -4.60 0 -0.35 11.75 -6.90 12.70 -7.05 0.45 -0.10 1.35 6.35 1.80 12.90 0.10 1.45 0.10 1.45 0.75 -0.50 1.90 -5.95 4.85 -10.50 7.80 -12.05 3.45 -1.75 7.45 0 7.45 3.30 0 4.10 -2.65 6.85 -10.10 10.40 l-4.90 2.35 0 11.40 0 11.35 2.50 4 2.50 4 -9.80 0 c-7.65 0 -9.70 -0.15 -9.40 -0.60z"/>
  <path d="M317.75 813.85 c-1.45 -1.45 -1.75 -2.10 -1.75 -3.90 0 -4.55 3.60 -7.30 7.70 -5.95 2.65 0.85 3.90 3.05 3.65 6.15 -0.30 3.35 -1.90 4.90 -5.30 5.25 -2.35 0.20 -2.65 0.10 -4.30 -1.55z"/>
  <path d="M394.25 815.05 c-1.75 -0.75 -2.85 -2.45 -3.10 -4.65 -0.25 -2.65 0.55 -4.25 2.85 -5.80 4.30 -2.90 9.90 1.30 8.50 6.40 -0.95 3.60 -4.75 5.45 -8.25 4.05z"/>
  <path d="M668.05 814.85 c-1.85 -0.90 -3.05 -4 -2.45 -6.50 0.60 -2.60 1.55 -3.70 3.95 -4.45 1.45 -0.40 2.25 -0.40 3.45 0.10 2.15 0.90 4 3.25 4 5.15 0 2.15 -1.45 4.95 -3 5.70 -1.55 0.80 -4.35 0.80 -5.95 0z"/>
  <path d="M1088.15 815 c-0.65 -0.25 -1.60 -1.20 -2.15 -2.10 -2.65 -4.20 1.05 -10.05 5.75 -9.20 5.20 1 6.75 7.10 2.70 10.55 -1.60 1.30 -4.15 1.60 -6.30 0.75z"/>
 </g>
</svg>