<?xml version="1.0" encoding="UTF-8" standalone="no"?>
<svg
   version="1.0"
   width="1252px"
   height="262px"
   viewBox="0 0 1252 262"
   preserveAspectRatio="xMidYMid meet"
   id="svg37"
   sodipodi:docname="multi-waves.svg"
   inkscape:version="1.4.2 (ebf0e940, 2025-05-08)"
   xmlns:inkscape="http://www.inkscape.org/namespaces/inkscape"
   xmlns:sodipodi="http://sodipodi.sourceforge.net/DTD/sodipodi-0.dtd"
   xmlns="http://www.w3.org/2000/svg"
   xmlns:svg="http://www.w3.org/2000/svg">
  <defs
     id="defs37" />
  <sodipodi:namedview
     id="namedview37"
     pagecolor="#ffffff"
     bordercolor="#111111"
     borderopacity="1"
     inkscape:showpageshadow="0"
     inkscape:pageopacity="0"
     inkscape:pagecheckerboard="1"
     inkscape:deskcolor="#d1d1d1"
     showgrid="false"
     inkscape:zoom="0.43124478"
     inkscape:cx="767.54553"
     inkscape:cy="452.17939"
     inkscape:window-width="1512"
     inkscape:window-height="917"
     inkscape:window-x="0"
     inkscape:window-y="65"
     inkscape:window-maximized="0"
     inkscape:current-layer="svg37" />
  <g
     fill="#0AE6D2"
     id="g37"
     transform="matrix(0.98703367,0,0,1,17.135504,0)">
    <path
       d="m 613.75,255.25 c -3.75,-0.95 -5,-1.55 -7.9,-3.7 -4.45,-3.25 -7.25,-7.8 -8.35,-13.65 -2.7,-13.7 11,-27.15 24.7,-24.2 4.75,1 8.1,2.8 11.15,5.9 4.85,5 7.35,12.4 6.1,18.2 -1.5,7.15 -5.6,12.75 -11.45,15.55 -5.5,2.65 -9.3,3.15 -14.25,1.9 z"
       id="path1" />
    <path
       d="M 68.65,254.55 C 61.3,252 56.35,246.3 54.7,238.45 c -1.9,-9.1 2.9,-18.45 11.7,-22.8 3.6,-1.8 4.05,-1.9 8.55,-1.9 6.3,0 9.9,1.35 14.25,5.35 5.6,5.1 8.1,11.95 6.85,18.75 -2,10.8 -10.15,17.7 -20.9,17.65 -2.4,-0.05 -4.9,-0.4 -6.5,-0.95 z"
       id="path2" />
    <path
       d="m 250.15,254.75 c -5.35,-1.65 -10.2,-5.9 -12.8,-11.2 -1.55,-3.15 -1.6,-3.55 -1.6,-9.05 0.05,-5.3 0.15,-6 1.5,-8.65 2.2,-4.5 5.7,-8.05 10.2,-10.25 3.65,-1.75 4,-1.85 8.8,-1.8 3.95,0 5.55,0.25 7.6,1.1 5.8,2.4 10.35,7.1 12.45,12.85 1.3,3.7 1.2,10.65 -0.2,14.25 -2.3,5.8 -7.25,10.6 -12.95,12.45 -3.7,1.2 -9.7,1.35 -13,0.3 z"
       id="path3" />
    <path
       d="m 432.25,255.05 c -3.5,-0.85 -6.5,-2.7 -9.7,-5.9 -4.6,-4.65 -5.8,-7.8 -5.75,-15.15 0,-4.75 0.15,-5.55 1.45,-8.15 2.15,-4.5 5.7,-8 10.15,-10.2 3.6,-1.8 4.05,-1.9 8.55,-1.9 3.8,0 5.45,0.25 7.8,1.15 5.95,2.25 10.1,6.4 12.35,12.35 1.55,4.1 1.55,10.75 0,14.75 -3.3,8.3 -11,13.55 -19.75,13.45 -1.95,-0.05 -4.25,-0.2 -5.1,-0.4 z"
       id="path4" />
    <path
       d="m 794.25,255 c -5.55,-1.35 -10.85,-5.8 -13.6,-11.4 -1.85,-3.65 -1.9,-4 -1.9,-9.05 0,-5 0.1,-5.5 1.7,-8.8 2.2,-4.5 5.8,-8.1 10.3,-10.3 3.3,-1.6 3.8,-1.7 8.75,-1.7 4.95,0 5.45,0.1 8.75,1.7 17.25,8.45 15.9,32.95 -2.15,39 -3.15,1.1 -8.75,1.35 -11.85,0.55 z"
       id="path5" />
    <path
       d="m 974.25,254.6 c -10.8,-3.75 -16.75,-14.4 -14.05,-25.1 1.65,-6.4 5.55,-11.1 11.75,-14.15 3.05,-1.5 3.65,-1.6 8.55,-1.6 4.85,0 5.5,0.1 8.55,1.55 7.85,3.75 12.45,10.8 12.45,19.2 0,11.75 -9.35,21.05 -21.1,21 -2.1,-0.05 -4.7,-0.4 -6.15,-0.9 z"
       id="path6" />
    <path
       d="m 1155.9,254.8 c -5.45,-1.45 -10.7,-5.95 -13.2,-11.2 -5.05,-10.65 -0.65,-22.9 10.05,-28.15 3.3,-1.6 3.8,-1.7 8.8,-1.7 5.05,0 5.4,0.05 9.05,1.9 4.45,2.2 7.95,5.7 10.2,10.2 1.3,2.7 1.4,3.35 1.45,8.65 0,5.35 -0.1,5.95 -1.45,8.75 -1.8,3.65 -6.65,8.65 -9.9,10.15 -4.6,2.15 -10.3,2.65 -15,1.4 z"
       id="path7" />
    <path
       d="M 5.85,234.15 C 5.7,233.9 5.8,231.5 6.05,228.7 8.75,197.5 30.7,172.9 62,166.2 c 5.95,-1.25 20,-1.3 26,0 14.55,3.1 26,9.25 36,19.25 5.85,5.9 9.25,10.5 12.95,17.75 4.1,8 6.65,17.15 7.35,26.7 l 0.35,4.6 h -12.5 -12.55 l -0.3,-3.35 c -0.8,-7.85 -3.6,-15.7 -7.85,-22 -0.9,-1.3 -3.45,-4.2 -5.7,-6.4 -13.4,-13.15 -33.25,-16.35 -50,-8.05 -14.3,7.1 -23.4,20.3 -24.7,35.8 l -0.3,3.75 -12.35,0.15 c -6.8,0.05 -12.45,-0.05 -12.55,-0.25 z"
       id="path8" />
    <path
       d="m 187.15,228.9 c 0.4,-6.75 2.4,-15.2 5.2,-21.7 9.2,-21.3 27.4,-36 50.8,-41 6.5,-1.4 20,-1.3 26.8,0.2 14.25,3.2 25.2,9.1 35.1,19.05 12.15,12.1 19.05,27.3 20.25,44.3 l 0.35,4.75 H 313.1 300.6 l -0.35,-3.6 c -1.9,-19.95 -15.75,-35.55 -35.5,-39.95 -4.7,-1.05 -14.65,-0.8 -19.5,0.5 -18.3,4.9 -31.45,20.3 -33.15,38.9 l -0.35,3.9 -12.45,0.15 -12.45,0.1 z"
       id="path9" />
    <path
       d="m 368.15,229.15 c 1.7,-27.35 20.9,-52 47.1,-60.55 8.2,-2.7 12.2,-3.3 21.5,-3.35 12.2,0 20.15,1.75 30.55,6.7 7.45,3.55 12.25,7.05 18.75,13.5 12.25,12.25 19.15,27.25 20.25,44 l 0.35,5.05 h -12.5 -12.5 l -0.35,-3.75 c -1,-11.05 -5.6,-20.6 -13.6,-28.3 -5.95,-5.65 -11.7,-8.85 -19.75,-11.05 -5.85,-1.55 -15.9,-1.55 -21.7,0.05 -13.55,3.65 -24.45,13.05 -29.85,25.65 -1.7,4.1 -3.4,11.45 -3.4,15.05 v 2.35 h -12.6 -12.55 z"
       id="path10" />
    <path
       d="m 549,230.4 c 0,-6.4 1.65,-14.05 4.6,-21.65 8,-20.3 26.5,-36.6 47.4,-41.8 8.2,-2.05 20.65,-2.6 28.5,-1.2 22.4,3.95 40.95,17.65 51.05,37.75 1.35,2.7 2.45,5.15 2.45,5.45 0,0.3 0.2,0.95 0.5,1.45 0.6,1.1 2.3,7.05 2.95,10.35 0.85,4.35 1.7,12.2 1.4,13 -0.3,0.65 -2,0.75 -12.75,0.75 h -12.45 l -0.35,-1.55 c -0.15,-0.85 -0.3,-2.35 -0.3,-3.3 0,-4.9 -3.65,-14.8 -7.5,-20.4 -8.9,-12.95 -25.85,-20.75 -40.8,-18.8 -21.15,2.8 -36.6,18.15 -39.25,39.2 l -0.6,4.85 H 561.4 549 Z"
       id="path11" />
    <path
       d="m 730.2,229.45 c 0.75,-12.05 4.9,-23.9 11.9,-34.4 3.55,-5.3 13.15,-14.75 18.4,-18.15 8.25,-5.4 16.2,-8.7 25.65,-10.7 5.9,-1.3 20.45,-1.3 26.35,0 18.75,4.05 34.1,14.25 44.35,29.55 6.85,10.2 10.75,21.6 11.5,33.4 l 0.3,5.35 h -12.5 -12.5 l -0.3,-3.85 c -1.45,-18.6 -14.7,-34.25 -33.1,-39.2 -5.25,-1.4 -15.8,-1.55 -20.9,-0.3 -18.85,4.65 -32.4,20.4 -34.15,39.6 l -0.35,3.75 h -12.5 -12.5 z"
       id="path12" />
    <path
       d="m 911.2,229.4 c 0.65,-9.5 2.6,-16.45 7.1,-25.65 9.5,-19.45 26.85,-32.85 48.7,-37.55 6.7,-1.45 21.1,-1.35 27.75,0.25 22.1,5.15 38.5,18.2 48.25,38.3 3.8,7.75 6.5,18.8 6.5,26.3 v 3.45 l -12.35,-0.1 -12.4,-0.15 -0.35,-3.9 c -1.6,-17.5 -13.25,-32.25 -29.95,-37.9 -7.45,-2.5 -14.05,-3 -21.7,-1.7 -8.6,1.5 -15.95,5.2 -22.35,11.2 -8.45,7.95 -13.1,17.3 -14.15,28.7 l -0.35,3.85 h -12.55 -12.5 z"
       id="path13" />
    <path
       d="m 1092.2,229.65 c 1.2,-16.4 7.75,-31.2 19.05,-43.05 10,-10.5 22.1,-17.2 36.9,-20.45 5.8,-1.25 20.9,-1.25 26.6,0.05 18.85,4.2 33.75,14.1 43.85,29 7.45,11.1 11.9,24.45 11.9,35.65 v 3.65 l -12.35,-0.1 -12.4,-0.15 -0.3,-3.75 c -2.05,-24.75 -24.75,-43.2 -49.3,-40.1 -21,2.65 -36.9,19.2 -38.9,40.5 l -0.35,3.6 h -12.5 -12.55 z"
       id="path14" />
    <path
       d="m 160,164.7 c -18.3,-2.2 -31.05,-8.25 -43.25,-20.45 -6.15,-6.15 -10.1,-11.65 -13.45,-18.75 -3.95,-8.4 -6.05,-16.35 -6.6,-25.05 L 96.35,95.5 h 12.55 12.6 v 1.7 c 0,0.9 0.35,3.65 0.75,6.05 2.9,16.65 15.85,30.8 32.1,35 22.85,5.95 46.3,-6.9 53.55,-29.25 1.15,-3.55 2.1,-8.7 2.1,-11.6 v -1.9 h 12.6 12.55 l -0.35,5.15 c -0.75,11.95 -5,24.1 -11.95,34.35 -1.45,2.05 -5.05,6.25 -8.1,9.3 -10.1,10.2 -21.45,16.3 -35.55,19.2 -4.65,0.95 -15.55,1.65 -19.2,1.2 z"
       id="path16" />
    <path
       d="m 340.75,164.65 c -8.15,-0.75 -18,-3.6 -25.15,-7.25 -7.1,-3.65 -11.75,-7.05 -17.6,-12.9 -12.15,-12.05 -19.1,-27.3 -20.3,-44.25 l -0.35,-4.75 h 12.6 12.55 v 1.45 c 0,2.9 1.55,10.1 3.05,14.3 4,11.05 14.5,21.6 25.55,25.65 5.45,2 9.45,2.7 15.65,2.75 12.6,0.05 23.25,-4.55 32.05,-13.75 7.1,-7.45 11.3,-16.75 12.05,-26.75 l 0.3,-3.65 h 12.5 12.5 l -0.3,5.4 c -1.4,22.65 -15.3,44.2 -35.75,55.45 -11.55,6.4 -26.3,9.5 -39.35,8.3 z"
       id="path17" />
    <path
       d="m -21.125181,165.05147 c -18.3,-2.2 -31.05,-8.25 -43.25,-20.45 -6.15,-6.15 -10.1,-11.65 -13.45,-18.75 -3.95,-8.4 -6.05,-16.35 -6.6,-25.05 l -0.35,-4.949992 h 12.55 12.6 v 1.7 c 0,0.9 0.35,3.649992 0.75,6.049992 2.9,16.65 15.85,30.8 32.1,35 22.8499997,5.95 46.3,-6.9 53.55,-29.25 1.15,-3.55 2.1,-8.69999 2.1,-11.599992 v -1.9 h 12.6 12.55 l -0.35,5.149992 c -0.75,11.95 -5,24.1 -11.95,34.35 -1.45,2.05 -5.05,6.25 -8.1,9.3 -10.1,10.2 -21.45,16.3 -35.5500003,19.2 -4.65,0.95 -15.5499997,1.65 -19.1999997,1.2 z"
       id="path16-7" />
    <path
       d="m 522,164.7 c -8.1,-0.8 -17.65,-3.5 -24.6,-6.95 -22.5,-11.3 -36.85,-32.65 -38.7,-57.6 l -0.35,-4.65 h 12.5 12.55 l 0.35,3.4 c 2.4,23.55 20.8,40.65 43.75,40.65 12.45,0 22,-3.8 30.9,-12.25 8.05,-7.65 13.6,-19.6 13.6,-29.3 v -2.5 h 12.65 12.6 l -0.3,4.9 c -0.85,12.5 -4.75,23.6 -12.1,34.6 -3.1,4.6 -12.4,14 -17.1,17.25 -7.95,5.55 -18,9.7 -27.75,11.5 -4.35,0.8 -14.05,1.3 -18,0.95 z"
       id="path18" />
    <path
       d="M 701.25,164.65 C 684.85,162.55 671.2,155.9 659.75,144.3 655.2,139.7 649,131.9 649,130.8 c 0,-0.15 -0.65,-1.35 -1.4,-2.65 -2.15,-3.7 -4.85,-10.65 -6,-15.65 -0.3,-1.25 -0.8,-3.25 -1.1,-4.5 -0.3,-1.25 -0.55,-4.6 -0.65,-7.5 l -0.1,-5.25 11.5,-0.15 c 6.35,-0.05 12,0 12.65,0.15 0.95,0.25 1.1,0.6 1.1,2.9 0,4.35 1.7,10.95 4.15,16.35 2.65,5.75 8.6,12.85 14.1,16.75 2.95,2.1 8.9,5.25 11.3,5.95 0.65,0.2 2.45,0.7 3.95,1.15 1.95,0.6 4.9,0.8 10.25,0.85 6.45,0 8.1,-0.15 11.75,-1.2 14.3,-4 25.6,-14.9 30.4,-29.25 1.15,-3.35 2.1,-8.65 2.1,-11.4 0,-1.5 0.2,-1.9 1.15,-2.1 0.6,-0.15 6.3,-0.2 12.6,-0.15 l 11.5,0.15 -0.1,4.5 c -0.3,11 -4.8,24.6 -11.3,34.25 -11.45,16.9 -28.55,27.5 -49.2,30.5 -3.4,0.45 -13.1,0.6 -16.4,0.15 z"
       id="path19" />
    <path
       d="M 882.5,164.5 C 848.6,160.35 823.4,134 820.75,99.9 l -0.35,-4.4 h 12.5 12.55 l 0.25,2.25 c 0.15,1.25 0.45,3.3 0.6,4.65 0.4,3.1 2.5,9.7 4.1,12.85 5.85,11.6 16.45,20.05 29.2,23.2 5.3,1.35 14.6,1.5 19.6,0.35 14,-3.25 25.25,-12.35 31.05,-25 1.9,-4.1 3.75,-11.05 3.75,-14 0,-1.15 0.15,-2.55 0.3,-3.15 l 0.3,-1.15 h 12.5 12.5 l -0.35,4.15 c -1.9,22.6 -12.7,41.35 -31,53.7 -12.5,8.4 -31.05,12.95 -45.75,11.15 z"
       id="path20"
       inkscape:label="path20" />
    <path
       d="m 1066,164.7 c -0.95,-0.1 -4,-0.55 -6.75,-1 -21.15,-3.35 -40.3,-17.55 -50,-36.95 -4.35,-8.7 -6.55,-16.8 -7.55,-27.65 l -0.35,-3.6 12.7,0.1 12.7,0.15 0.3,3.75 c 1.6,19.1 15.95,35.25 35,39.25 4.5,0.95 13.4,0.95 17.9,0 13.85,-2.9 25.4,-12.15 31.3,-24.95 1.75,-3.75 3.5,-10.6 4,-15.4 l 0.3,-2.9 h 12.55 12.5 l -0.35,4.4 c -2.55,32.5 -25.85,58.4 -57.4,63.85 -4.6,0.75 -13.85,1.3 -16.85,0.95 z"
       id="path21" />
    <path
       d="m 1246.9387,164.89694 c -0.95,-0.1 -4,-0.55 -6.75,-1 -21.15,-3.35 -40.3,-17.55 -50,-36.95 -4.35,-8.7 -6.55,-16.8 -7.55,-27.650002 l -0.35,-3.6 12.7,0.1 12.7,0.15 0.3,3.75 c 1.6,19.100002 15.95,35.250002 35,39.250002 4.5,0.95 13.4,0.95 17.9,0 13.85,-2.9 25.4,-12.15 31.3,-24.95 1.75,-3.75 3.5,-10.6 4,-15.400002 l 0.3,-2.9 h 12.55 12.5 l -0.35,4.400002 c -2.55,32.5 -25.85,58.4 -57.4,63.85 -4.6,0.75 -13.85,1.3 -16.85,0.95 z"
       id="path21-5" />
    <path
       d="M 69.95,94.8 C 59.35,91.85 52.55,81 54.7,70.5 c 1.45,-6.85 5.45,-12.05 11.6,-15.05 3.3,-1.6 3.7,-1.7 9,-1.7 5.35,0 5.6,0.05 9.3,1.9 6.3,3.1 10.15,8.3 11.45,15.5 C 98.7,85.5 84.15,98.7 69.95,94.8 Z"
       id="path23" />
    <path
       d="m 251.25,94.8 c -7,-1.75 -12.4,-6.8 -14.75,-13.85 -0.9,-2.6 -1.05,-4.05 -0.9,-7.7 0.15,-3.85 0.45,-5 1.85,-7.95 2.15,-4.4 5.4,-7.7 9.85,-9.85 3.3,-1.6 3.7,-1.7 9,-1.7 5.35,0 5.6,0.05 9.3,1.9 13.15,6.5 15.8,23.45 5.25,33.85 -5.1,5.05 -12.5,7.05 -19.6,5.3 z"
       id="path24" />
    <path
       d="m 432,94.7 c -4.75,-1.3 -9.25,-4.45 -12,-8.45 -4,-5.8 -4.65,-14.4 -1.55,-20.9 2.05,-4.3 5.6,-7.85 9.9,-9.9 6.45,-3.1 15.1,-2.45 20.9,1.55 4.6,3.15 7.7,7.9 8.75,13.4 3,15.1 -11.15,28.3 -26,24.3 z"
       id="path25" />
    <path
       d="m 613.45,95.05 c -5.35,-1.1 -11.9,-6.55 -14.15,-11.65 -1.95,-4.45 -2.55,-8.75 -1.8,-12.45 1.8,-8.85 7.55,-14.95 16.15,-17.25 9.25,-2.45 19.45,2.4 23.7,11.3 2.3,4.75 2.85,8.4 2,12.85 -1.4,7.15 -5.3,12.35 -11.6,15.45 -3.25,1.6 -4.2,1.85 -8.1,2 -2.4,0.05 -5.2,-0.05 -6.2,-0.25 z"
       id="path26" />
    <path
       d="m 794.85,94.95 c -8.75,-2.05 -15.55,-9.9 -16.2,-18.65 -0.5,-6.5 1.25,-11.5 5.75,-16.35 9.05,-9.8 24.85,-8.45 32.6,2.85 5.5,7.95 4.35,19.45 -2.7,26.45 -5,5 -12.75,7.3 -19.45,5.7 z"
       id="path27" />
    <path
       d="m 976.25,94.95 c -6.25,-1.4 -11.9,-5.8 -14.5,-11.3 -6.2,-12.95 1.6,-27.85 15.8,-30.1 8.8,-1.45 18,3.5 22.05,11.8 1.55,3.2 1.65,3.7 1.65,8.9 0,5.3 -0.1,5.65 -1.7,9 -4.4,8.9 -14.1,13.75 -23.3,11.7 z"
       id="path28" />
    <path
       d="m 1156.75,94.8 c -7.4,-1.85 -13.55,-7.95 -15.55,-15.5 -3.1,-11.65 5,-23.65 17.45,-25.8 2.8,-0.5 3.95,-0.45 7.05,0.2 6.85,1.55 11.9,5.5 14.95,11.75 1.5,3.1 1.6,3.65 1.6,8.8 0,5.4 -0.05,5.65 -1.9,9.35 -4.35,8.9 -14.15,13.55 -23.6,11.2 z"
       id="path29" />
    <path
       d="M 561.15,74.1 549,74 v -3.95 c 0,-7.95 3.1,-19.4 7.55,-27.9 12.75,-24.3 38.2,-38.95 65.2,-37.4 22.55,1.25 42.45,12.65 54.6,31.3 4.75,7.3 8.35,15.85 9.85,23.55 0.8,4 1.8,11.4 1.8,13.25 V 74 h -12.7 -12.7 l -0.3,-1.1 C 662.15,72.25 662,70.75 662,69.5 661.95,63.95 659.1,56.05 654.9,49.75 642.65,31.35 618.3,24.8 598.75,34.6 c -6.2,3.1 -13.2,9.2 -17.1,14.95 -3.6,5.3 -6.25,12.45 -7.15,19.5 -0.35,2.6 -0.75,4.8 -0.95,4.95 -0.15,0.15 -5.75,0.2 -12.4,0.1 z"
       id="path30" />
    <path
       d="M 5.95,73.65 C 5.7,72.25 6.15,66.5 6.85,62.5 8.4,53 12.5,42.8 18.15,34.5 21.75,29.3 30.85,20.3 36,16.9 43.7,11.85 51.65,8.35 60,6.45 66.35,4.95 79.3,4.6 86.05,5.75 c 32.05,5.3 55.7,31.15 58.2,63.65 l 0.4,4.6 H 132.1 119.6 l -0.35,-3.1 c -2.1,-19.4 -14.2,-34.1 -32.5,-39.45 -5.3,-1.55 -17,-1.7 -22.5,-0.3 -17.8,4.65 -31.75,21 -33.1,38.75 L 30.85,74 H 18.45 C 11.6,74 5.95,73.85 5.95,73.65 Z"
       id="path31" />
    <path
       d="m 187.15,68.65 c 1,-16.25 7.95,-31.25 20.1,-43.4 8.15,-8.15 16.85,-13.55 27.45,-17 8,-2.55 11.05,-3 21.55,-3 10.15,0 13.65,0.5 21.6,3.05 26.4,8.55 45.45,32.95 47.45,60.85 l 0.35,4.85 h -12.5 -12.5 L 300.1,69.3 C 297.85,51.05 285.55,36.6 268,31.5 c -7.55,-2.15 -18.25,-1.9 -25.9,0.7 -8.9,3.05 -17.35,9.45 -22.6,17.05 -3.95,5.75 -6.85,14 -7.35,21.1 l -0.3,3.65 h -12.5 -12.5 z"
       id="path32" />
    <path
       d="m 368.2,68.9 c 1.5,-23.9 16.3,-45.95 38.05,-56.8 11.4,-5.65 24.6,-8.25 36.45,-7.1 34.8,3.35 61.2,30 63.6,64.25 l 0.35,4.75 h -12.5 -12.45 l -0.6,-4.85 C 479.75,58.5 475.75,50.2 468.25,42.75 462.2,36.65 454.35,32.5 445.55,30.75 440.45,29.7 430.9,29.95 426,31.25 408.15,36 394.7,51.95 393.2,70.1 l -0.35,3.9 h -12.5 -12.5 z"
       id="path33"
       inkscape:label="path33" />
    <path
       d="m 730.2,69.25 c 2.25,-31.9 25.95,-58.05 57.55,-63.5 9.7,-1.65 21.5,-0.95 31,1.8 27.65,8.15 47.75,33 49.55,61.35 l 0.35,5.1 h -12.5 -12.5 L 843.3,70.1 C 841.8,51.8 828.65,36.35 810.2,31.2 805.8,30 795.6,29.7 790.85,30.7 c -8.75,1.8 -16.9,6.15 -23,12.4 -7.35,7.5 -11.65,16.6 -12.6,27.05 L 754.9,74 h -12.55 -12.5 z"
       id="path34" />
    <path
       d="M 911.2,69.15 C 913,44.65 927.45,23.1 949.65,11.95 960.5,6.45 975.1,3.7 986.5,5 c 17.25,1.9 30.75,8.25 42.55,20 6.15,6.15 9.55,10.75 13.2,18 4.4,8.8 6.55,16.7 7.1,25.9 l 0.3,5.1 h -12.5 -12.5 l -0.3,-3.65 c -0.4,-5.5 -1.65,-10.05 -4.35,-15.6 -4.25,-8.85 -11.4,-16 -20.25,-20.25 -7.4,-3.55 -10.55,-4.25 -19.5,-4.25 -8.85,0 -12.15,0.7 -19,4 -13.95,6.8 -22.85,19.35 -24.85,34.9 L 935.8,74 h -12.45 -12.5 z"
       id="path35" />
    <path
       d="m 1092.2,69.65 c 2,-25.4 16.15,-46.55 38.75,-57.9 10.45,-5.2 25.35,-8 36.3,-6.8 17.75,2 31.1,8.25 43.05,20.25 9.95,10 16.15,21.35 18.95,34.8 0.8,3.85 1.7,13.35 1.3,13.8 -0.1,0.1 -5.75,0.2 -12.55,0.2 h -12.35 l -0.3,-4.1 c -1.4,-18.75 -16.15,-35.2 -35,-39.1 -4.75,-1 -13.2,-1.05 -17.75,-0.05 -19.35,4.05 -33.45,19.95 -35.35,39.9 L 1116.9,74 h -12.5 -12.55 z"
       id="path36" />
  </g>
</svg>
