<?xml version="1.0" encoding="utf-8"?>
<svg xmlns="http://www.w3.org/2000/svg" width="5000" height="262" viewBox="0 0 5008 262" preserveAspectRatio="xMidYMid meet">
  <symbol id="wave" viewBox="0 0 1252 262">
 <g fill="#81c6c8">
  <path d="M613.75 255.25 c-3.75 -0.95 -5 -1.55 -7.90 -3.70 -4.45 -3.25 -7.25 -7.80 -8.35 -13.65 -2.70 -13.70 11 -27.15 24.70 -24.20 4.75 1 8.10 2.80 11.15 5.90 4.85 5 7.35 12.40 6.10 18.20 -1.50 7.15 -5.60 12.75 -11.45 15.55 -5.50 2.65 -9.30 3.15 -14.25 1.90z"/>
  <path d="M68.65 254.55 c-7.35 -2.55 -12.30 -8.25 -13.95 -16.10 -1.90 -9.10 2.90 -18.45 11.70 -22.80 3.60 -1.80 4.05 -1.90 8.55 -1.90 6.30 0 9.90 1.35 14.25 5.35 5.60 5.10 8.10 11.95 6.85 18.75 -2 10.80 -10.15 17.70 -20.90 17.65 -2.40 -0.05 -4.90 -0.40 -6.50 -0.95z"/>
  <path d="M250.15 254.75 c-5.35 -1.65 -10.20 -5.90 -12.80 -11.20 -1.55 -3.15 -1.60 -3.55 -1.60 -9.05 0.05 -5.30 0.15 -6 1.50 -8.65 2.20 -4.50 5.70 -8.05 10.20 -10.25 3.65 -1.75 4 -1.85 8.80 -1.80 3.95 0 5.55 0.25 7.60 1.10 5.80 2.40 10.35 7.10 12.45 12.85 1.30 3.70 1.20 10.65 -0.20 14.25 -2.30 5.80 -7.25 10.60 -12.95 12.45 -3.70 1.20 -9.70 1.35 -13 0.30z"/>
  <path d="M432.25 255.05 c-3.50 -0.85 -6.50 -2.70 -9.70 -5.90 -4.60 -4.65 -5.80 -7.80 -5.75 -15.15 0 -4.75 0.15 -5.55 1.45 -8.15 2.15 -4.50 5.70 -8 10.15 -10.20 3.60 -1.80 4.05 -1.90 8.55 -1.90 3.80 0 5.45 0.25 7.80 1.15 5.95 2.25 10.10 6.40 12.35 12.35 1.55 4.10 1.55 10.75 0 14.75 -3.30 8.30 -11 13.55 -19.75 13.45 -1.95 -0.05 -4.25 -0.20 -5.10 -0.40z"/>
  <path d="M794.25 255 c-5.55 -1.35 -10.85 -5.80 -13.60 -11.40 -1.85 -3.65 -1.90 -4 -1.90 -9.05 0 -5 0.10 -5.50 1.70 -8.80 2.20 -4.50 5.80 -8.10 10.30 -10.30 3.30 -1.60 3.80 -1.70 8.75 -1.70 4.95 0 5.45 0.10 8.75 1.70 17.25 8.45 15.90 32.95 -2.15 39 -3.15 1.10 -8.75 1.35 -11.85 0.55z"/>
  <path d="M974.25 254.60 c-10.80 -3.75 -16.75 -14.40 -14.05 -25.10 1.65 -6.40 5.55 -11.10 11.75 -14.15 3.05 -1.50 3.65 -1.60 8.55 -1.60 4.85 0 5.50 0.10 8.55 1.55 7.85 3.75 12.45 10.80 12.45 19.20 0 11.75 -9.35 21.05 -21.10 21 -2.10 -0.05 -4.70 -0.40 -6.15 -0.90z"/>
  <path d="M1155.90 254.80 c-5.45 -1.45 -10.70 -5.95 -13.20 -11.20 -5.05 -10.65 -0.65 -22.90 10.05 -28.15 3.30 -1.60 3.80 -1.70 8.80 -1.70 5.05 0 5.40 0.05 9.05 1.90 4.45 2.20 7.95 5.70 10.20 10.20 1.30 2.70 1.40 3.35 1.45 8.65 0 5.35 -0.10 5.95 -1.45 8.75 -1.80 3.65 -6.65 8.65 -9.90 10.15 -4.60 2.15 -10.30 2.65 -15 1.40z"/>
  <path d="M5.85 234.15 c-0.15 -0.25 -0.05 -2.65 0.20 -5.45 2.70 -31.20 24.65 -55.80 55.95 -62.50 5.95 -1.25 20 -1.30 26 0 14.55 3.10 26 9.25 36 19.25 5.85 5.90 9.25 10.50 12.95 17.75 4.10 8 6.65 17.15 7.35 26.70 l0.35 4.60 -12.50 0 -12.55 0 -0.30 -3.35 c-0.80 -7.85 -3.60 -15.70 -7.85 -22 -0.90 -1.30 -3.45 -4.20 -5.70 -6.40 -13.40 -13.15 -33.25 -16.35 -50 -8.05 -14.30 7.10 -23.40 20.30 -24.70 35.80 l-0.30 3.75 -12.35 0.15 c-6.80 0.05 -12.45 -0.05 -12.55 -0.25z"/>
  <path d="M187.15 228.90 c0.40 -6.75 2.40 -15.20 5.20 -21.70 9.20 -21.30 27.40 -36 50.80 -41 6.50 -1.40 20 -1.30 26.80 0.20 14.25 3.20 25.20 9.10 35.10 19.05 12.15 12.10 19.05 27.30 20.25 44.30 l0.35 4.75 -12.55 0 -12.50 0 -0.35 -3.60 c-1.90 -19.95 -15.75 -35.55 -35.50 -39.95 -4.70 -1.05 -14.65 -0.80 -19.50 0.50 -18.30 4.90 -31.45 20.30 -33.15 38.90 l-0.35 3.90 -12.45 0.15 -12.45 0.10 0.30 -5.60z"/>
  <path d="M368.15 229.15 c1.70 -27.35 20.90 -52 47.10 -60.55 8.20 -2.70 12.20 -3.30 21.50 -3.35 12.20 0 20.15 1.75 30.55 6.70 7.45 3.55 12.25 7.05 18.75 13.50 12.25 12.25 19.15 27.25 20.25 44 l0.35 5.05 -12.50 0 -12.50 0 -0.35 -3.75 c-1 -11.05 -5.60 -20.60 -13.60 -28.30 -5.95 -5.65 -11.70 -8.85 -19.75 -11.05 -5.85 -1.55 -15.90 -1.55 -21.70 0.05 -13.55 3.65 -24.45 13.05 -29.85 25.65 -1.70 4.10 -3.40 11.45 -3.40 15.05 l0 2.35 -12.60 0 -12.55 0 0.30 -5.35z"/>
  <path d="M549 230.40 c0 -6.40 1.65 -14.05 4.60 -21.65 8 -20.30 26.50 -36.60 47.40 -41.80 8.20 -2.05 20.65 -2.60 28.50 -1.20 22.40 3.95 40.95 17.65 51.05 37.75 1.35 2.70 2.45 5.15 2.45 5.45 0 0.30 0.20 0.95 0.50 1.45 0.60 1.10 2.30 7.05 2.95 10.35 0.85 4.35 1.70 12.20 1.40 13 -0.30 0.65 -2 0.75 -12.75 0.75 l-12.45 0 -0.35 -1.55 c-0.15 -0.85 -0.30 -2.35 -0.30 -3.30 0 -4.90 -3.65 -14.80 -7.50 -20.40 -8.90 -12.95 -25.85 -20.75 -40.80 -18.80 -21.15 2.80 -36.60 18.15 -39.25 39.20 l-0.60 4.85 -12.45 0 -12.40 0 0 -4.10z"/>
  <path d="M730.20 229.45 c0.75 -12.05 4.90 -23.90 11.90 -34.40 3.55 -5.30 13.15 -14.75 18.40 -18.15 8.25 -5.40 16.20 -8.70 25.65 -10.70 5.90 -1.30 20.45 -1.30 26.35 0 18.75 4.05 34.10 14.25 44.35 29.55 6.85 10.20 10.75 21.60 11.50 33.40 l0.30 5.35 -12.50 0 -12.50 0 -0.30 -3.85 c-1.45 -18.60 -14.70 -34.25 -33.10 -39.20 -5.25 -1.40 -15.80 -1.55 -20.90 -0.30 -18.85 4.65 -32.40 20.40 -34.15 39.60 l-0.35 3.75 -12.50 0 -12.50 0 0.35 -5.05z"/>
  <path d="M911.20 229.40 c0.65 -9.50 2.60 -16.45 7.10 -25.65 9.50 -19.45 26.85 -32.85 48.70 -37.55 6.70 -1.45 21.10 -1.35 27.75 0.25 22.10 5.15 38.50 18.20 48.25 38.30 3.80 7.75 6.50 18.80 6.50 26.30 l0 3.45 -12.35 -0.10 -12.40 -0.15 -0.35 -3.90 c-1.60 -17.50 -13.25 -32.25 -29.95 -37.90 -7.45 -2.50 -14.05 -3 -21.70 -1.70 -8.60 1.50 -15.95 5.20 -22.35 11.20 -8.45 7.95 -13.10 17.30 -14.15 28.70 l-0.35 3.85 -12.55 0 -12.50 0 0.35 -5.10z"/>
  <path d="M1092.20 229.65 c1.20 -16.40 7.75 -31.20 19.05 -43.05 10 -10.50 22.10 -17.20 36.90 -20.45 5.80 -1.25 20.90 -1.25 26.60 0.05 18.85 4.20 33.75 14.10 43.85 29 7.45 11.10 11.90 24.45 11.90 35.65 l0 3.65 -12.35 -0.10 -12.40 -0.15 -0.30 -3.75 c-2.05 -24.75 -24.75 -43.20 -49.30 -40.10 -21 2.65 -36.90 19.20 -38.90 40.50 l-0.35 3.60 -12.50 0 -12.55 0 0.35 -4.85z"/>

  <path d="M160 164.70 c-18.30 -2.20 -31.05 -8.25 -43.25 -20.45 -6.15 -6.15 -10.10 -11.65 -13.45 -18.75 -3.95 -8.40 -6.05 -16.35 -6.60 -25.05 l-0.35 -4.95 12.55 0 12.60 0 0 1.70 c0 0.90 0.35 3.65 0.75 6.05 2.90 16.65 15.85 30.80 32.10 35 22.85 5.95 46.30 -6.90 53.55 -29.25 1.15 -3.55 2.10 -8.70 2.10 -11.60 l0 -1.90 12.60 0 12.55 0 -0.35 5.15 c-0.75 11.95 -5 24.10 -11.95 34.35 -1.45 2.05 -5.05 6.25 -8.10 9.30 -10.10 10.20 -21.45 16.30 -35.55 19.20 -4.65 0.95 -15.55 1.65 -19.20 1.20z"/>
  <path d="M340.75 164.65 c-8.15 -0.75 -18 -3.60 -25.15 -7.25 -7.10 -3.65 -11.75 -7.05 -17.60 -12.90 -12.15 -12.05 -19.10 -27.30 -20.30 -44.25 l-0.35 -4.75 12.60 0 12.55 0 0 1.45 c0 2.90 1.55 10.10 3.05 14.30 4 11.05 14.50 21.60 25.55 25.65 5.45 2 9.45 2.70 15.65 2.75 12.60 0.05 23.25 -4.55 32.05 -13.75 7.10 -7.45 11.30 -16.75 12.05 -26.75 l0.30 -3.65 12.50 0 12.50 0 -0.30 5.40 c-1.40 22.65 -15.30 44.20 -35.75 55.45 -11.55 6.40 -26.30 9.50 -39.35 8.30z"/>
  <path d="M522 164.70 c-8.10 -0.80 -17.65 -3.50 -24.60 -6.95 -22.50 -11.30 -36.85 -32.65 -38.70 -57.60 l-0.35 -4.65 12.50 0 12.55 0 0.35 3.40 c2.40 23.55 20.80 40.65 43.75 40.65 12.45 0 22 -3.80 30.90 -12.25 8.05 -7.65 13.60 -19.60 13.60 -29.30 l0 -2.50 12.65 0 12.60 0 -0.30 4.90 c-0.85 12.50 -4.75 23.60 -12.10 34.60 -3.10 4.60 -12.40 14 -17.10 17.25 -7.95 5.55 -18 9.70 -27.75 11.50 -4.35 0.80 -14.05 1.30 -18 0.95z"/>
  <path d="M701.25 164.65 c-16.40 -2.10 -30.05 -8.75 -41.50 -20.35 -4.55 -4.60 -10.75 -12.40 -10.75 -13.50 0 -0.15 -0.65 -1.35 -1.40 -2.65 -2.15 -3.70 -4.85 -10.65 -6 -15.65 -0.30 -1.25 -0.80 -3.25 -1.10 -4.50 -0.30 -1.25 -0.55 -4.60 -0.65 -7.50 l-0.10 -5.25 11.50 -0.15 c6.35 -0.05 12 0 12.65 0.15 0.95 0.25 1.10 0.60 1.10 2.90 0 4.35 1.70 10.95 4.15 16.35 2.65 5.75 8.60 12.85 14.10 16.75 2.95 2.10 8.90 5.25 11.30 5.95 0.65 0.20 2.45 0.70 3.95 1.15 1.95 0.60 4.90 0.80 10.25 0.85 6.45 0 8.10 -0.15 11.75 -1.20 14.30 -4 25.60 -14.90 30.40 -29.25 1.15 -3.35 2.10 -8.65 2.10 -11.40 0 -1.50 0.20 -1.90 1.15 -2.10 0.60 -0.15 6.30 -0.20 12.60 -0.15 l11.50 0.15 -0.10 4.50 c-0.30 11 -4.80 24.60 -11.30 34.25 -11.45 16.90 -28.55 27.50 -49.20 30.50 -3.40 0.45 -13.10 0.60 -16.40 0.15z"/>
  <path d="M882.50 164.50 c-33.90 -4.15 -59.10 -30.50 -61.75 -64.60 l-0.35 -4.40 12.50 0 12.55 0 0.25 2.25 c0.15 1.25 0.45 3.30 0.60 4.65 0.40 3.10 2.50 9.70 4.10 12.85 5.85 11.60 16.45 20.05 29.20 23.20 5.30 1.35 14.60 1.50 19.60 0.35 14 -3.25 25.25 -12.35 31.05 -25 1.90 -4.10 3.75 -11.05 3.75 -14 0 -1.15 0.15 -2.55 0.30 -3.15 l0.30 -1.15 12.50 0 12.50 0 -0.35 4.15 c-1.90 22.60 -12.70 41.35 -31 53.70 -12.50 8.40 -31.05 12.95 -45.75 11.15z"/>
  <path d="M1066 164.70 c-0.95 -0.10 -4 -0.55 -6.75 -1 -21.15 -3.35 -40.30 -17.55 -50 -36.95 -4.35 -8.70 -6.55 -16.80 -7.55 -27.65 l-0.35 -3.60 12.70 0.10 12.70 0.15 0.30 3.75 c1.60 19.10 15.95 35.25 35 39.25 4.50 0.95 13.40 0.95 17.90 0 13.85 -2.90 25.40 -12.15 31.30 -24.95 1.75 -3.75 3.50 -10.60 4 -15.40 l0.30 -2.90 12.55 0 12.50 0 -0.35 4.40 c-2.55 32.50 -25.85 58.40 -57.40 63.85 -4.60 0.75 -13.85 1.30 -16.85 0.95z"/>
  <path d="M69.95 94.80 c-10.60 -2.95 -17.40 -13.80 -15.25 -24.30 1.45 -6.85 5.45 -12.05 11.60 -15.05 3.30 -1.60 3.70 -1.70 9 -1.70 5.35 0 5.60 0.05 9.30 1.90 6.30 3.10 10.15 8.30 11.45 15.50 2.65 14.35 -11.90 27.55 -26.10 23.65z"/>
  <path d="M251.25 94.80 c-7 -1.75 -12.40 -6.80 -14.75 -13.85 -0.90 -2.60 -1.05 -4.05 -0.90 -7.70 0.15 -3.85 0.45 -5 1.85 -7.95 2.15 -4.40 5.40 -7.70 9.85 -9.85 3.30 -1.60 3.70 -1.70 9 -1.70 5.35 0 5.60 0.05 9.30 1.90 13.15 6.50 15.80 23.45 5.25 33.85 -5.10 5.05 -12.50 7.05 -19.60 5.30z"/>
  <path d="M432 94.70 c-4.75 -1.30 -9.25 -4.45 -12 -8.45 -4 -5.80 -4.65 -14.40 -1.55 -20.90 2.05 -4.30 5.60 -7.85 9.90 -9.90 6.45 -3.10 15.10 -2.45 20.90 1.55 4.60 3.15 7.70 7.90 8.75 13.40 3 15.10 -11.15 28.30 -26 24.30z"/>
  <path d="M613.45 95.05 c-5.35 -1.10 -11.90 -6.55 -14.15 -11.65 -1.95 -4.45 -2.55 -8.75 -1.80 -12.45 1.80 -8.85 7.55 -14.95 16.15 -17.25 9.25 -2.45 19.45 2.40 23.70 11.30 2.30 4.75 2.85 8.40 2 12.85 -1.40 7.15 -5.30 12.35 -11.60 15.45 -3.25 1.60 -4.20 1.85 -8.10 2 -2.40 0.05 -5.20 -0.05 -6.20 -0.25z"/>
  <path d="M794.85 94.95 c-8.75 -2.05 -15.55 -9.90 -16.20 -18.65 -0.50 -6.50 1.25 -11.50 5.75 -16.35 9.05 -9.80 24.85 -8.45 32.60 2.85 5.50 7.95 4.35 19.45 -2.70 26.45 -5 5 -12.75 7.30 -19.45 5.70z"/>
  <path d="M976.25 94.95 c-6.25 -1.40 -11.90 -5.80 -14.50 -11.30 -6.20 -12.95 1.60 -27.85 15.80 -30.10 8.80 -1.45 18 3.50 22.05 11.80 1.55 3.20 1.65 3.70 1.65 8.90 0 5.30 -0.10 5.65 -1.70 9 -4.40 8.90 -14.10 13.75 -23.30 11.70z"/>
  <path d="M11c56.75 94.80 c-7.40 -1.85 -13.55 -7.95 -15.55 -15.50 -3.10 -11.65 5 -23.65 17.45 -25.80 2.80 -0.50 3.95 -0.45 7.05 0.20 6.85 1.55 11.90 5.50 14.95 11.75 1.50 3.10 1.60 3.65 1.60 8.80 0 5.40 -0.05 5.65 -1.90 9.35 -4.35 8.90 -14.15 13.55 -23.60 11.20z"/>
  <path d="M1156.75 94.80 c-7.40 -1.85 -13.55 -7.95 -15.55 -15.50 -3.10 -11.65 5 -23.65 17.45 -25.80 2.80 -0.50 3.95 -0.45 7.05 0.20 6.85 1.55 11.90 5.50 14.95 11.75 1.50 3.10 1.60 3.65 1.60 8.80 0 5.40 -0.05 5.65 -1.90 9.35 -4.35 8.90 -14.15 13.55 -23.60 11.20z"/>
  <path d="M561.15 74.10 l-12.15 -0.10 0 -3.95 c0 -7.95 3.10 -19.40 7.55 -27.90 12.75 -24.30 38.20 -38.95 65.20 -37.40 22.55 1.25 42.45 12.65 54.60 31.30 4.75 7.30 8.35 15.85 9.85 23.55 0.80 4 1.80 11.40 1.80 13.25 l0 1.15 -12.70 0 -12.70 0 -0.30 -1.10 c-0.15 -0.65 -0.30 -2.15 -0.30 -3.40 -0.05 -5.55 -2.90 -13.45 -7.10 -19.75 -12.25 -18.40 -36.60 -24.95 -56.15 -15.15 -6.20 3.10 -13.20 9.20 -17.10 14.95 -3.60 5.30 -6.25 12.45 -7.15 19.50 -0.35 2.60 -0.75 4.80 -0.95 4.95 -0.15 0.15 -5.75 0.20 -12.40 0.10z"/>
  <path d="M5.95 73.65 c-0.25 -1.40 0.20 -7.15 0.90 -11.15 1.55 -9.50 5.65 -19.70 11.30 -28 3.60 -5.20 12.70 -14.20 17.85 -17.60 7.70 -5.05 15.65 -8.55 24 -10.45 6.35 -1.50 19.30 -1.85 26.05 -0.70 32.05 5.30 55.70 31.15 58.20 63.65 l0.40 4.60 -12.55 0 -12.50 0 -0.35 -3.10 c-2.10 -19.40 -14.20 -34.10 -32.50 -39.45 -5.30 -1.55 -17 -1.70 -22.50 -0.30 -17.80 4.65 -31.75 21 -33.10 38.75 l-0.30 4.10 -12.40 0 c-6.85 0 -12.50 -0.15 -12.50 -0.35z"/>
  <path d="M187.15 68.65 c1 -16.25 7.95 -31.25 20.10 -43.40 8.15 -8.15 16.85 -13.55 27.45 -17 8 -2.55 11.05 -3 21.55 -3 10.15 0 13.65 0.50 21.60 3.05 26.40 8.55 45.45 32.95 47.45 60.85 l0.35 4.85 -12.50 0 -12.50 0 -0.55 -4.70 c-2.25 -18.25 -14.55 -32.70 -32.10 -37.80 -7.55 -2.15 -18.25 -1.90 -25.90 0.70 -8.90 3.05 -17.35 9.45 -22.60 17.05 -3.95 5.75 -6.85 14 -7.35 21.10 l-0.30 3.65 -12.50 0 -12.50 0 0.30 -5.35z"/>
  <path d="M368.20 68.90 c1.50 -23.90 16.30 -45.95 38.05 -56.80 11.40 -5.65 24.60 -8.25 36.45 -7.10 34.80 3.35 61.20 30 63.60 64.25 l0.35 4.75 -12.50 0 -12.45 0 -0.60 -4.85 c-1.35 -10.65 -5.35 -18.95 -12.85 -26.40 -6.05 -6.10 -13.90 -10.25 -22.70 -12 -5.10 -1.05 -14.65 -0.80 -19.55 0.50 -17.85 4.75 -31.30 20.70 -32.80 38.85 l-0.35 3.90 -12.50 0 -12.50 0 0.35 -5.10z"/>
  <path d="M730.20 69.25 c2.25 -31.90 25.95 -58.05 57.55 -63.50 9.70 -1.65 21.50 -0.95 31 1.80 27.65 8.15 47.75 33 49.55 61.35 l0.35 5.10 -12.50 0 -12.50 0 -0.35 -3.90 c-1.50 -18.30 -14.65 -33.75 -33.10 -38.90 -4.40 -1.20 -14.60 -1.50 -19.35 -0.50 -8.75 1.80 -16.90 6.15 -23 12.40 -7.35 7.50 -11.65 16.60 -12.60 27.05 l-0.35 3.85 -12.55 0 -12.50 0 0.35 -4.75z"/>
  <path d="M911.20 69.15 c1.80 -24.50 16.25 -46.05 38.45 -57.20 10.85 -5.50 25.45 -8.25 36.85 -6.95 17.25 1.90 30.75 8.25 42.55 20 6.15 6.15 9.55 10.75 13.20 18 4.40 8.80 6.55 16.70 7.10 25.90 l0.30 5.10 -12.50 0 -12.50 0 -0.30 -3.65 c-0.40 -5.50 -1.65 -10.05 -4.35 -15.60 -4.25 -8.85 -11.40 -16 -20.25 -20.25 -7.40 -3.55 -10.55 -4.25 -19.50 -4.25 -8.85 0 -12.15 0.70 -19 4 -13.95 6.80 -22.85 19.35 -24.85 34.90 l-0.60 4.85 -12.45 0 -12.50 0 0.35 -4.85z"/>
  <path d="M1092.20 69.65 c2 -25.40 16.15 -46.55 38.75 -57.90 10.45 -5.20 25.35 -8 36.30 -6.80 17.75 2 31.10 8.25 43.05 20.25 9.95 10 16.15 21.35 18.95 34.80 0.80 3.85 1.70 13.35 1.30 13.80 -0.10 0.10 -5.75 0.20 -12.55 0.20 l-12.35 0 -0.30 -4.10 c-1.40 -18.75 -16.15 -35.20 -35 -39.10 -4.75 -1 -13.20 -1.05 -17.75 -0.05 -19.35 4.05 -33.45 19.95 -35.35 39.90 l-0.35 3.35 -12.50 0 -12.55 0 0.35 -4.35z"/>
 </g>
   </symbol>
    <use href="#wave" x="0"/>


</svg>