<?xml version="1.0" encoding="utf-8"?>
<!DOCTYPE svg PUBLIC "-//W3C//DTD SVG 1.0//EN" "http://www.w3.org/TR/2001/REC-SVG-20010904/DTD/svg10.dtd">
<svg version="1.0" xmlns="http://www.w3.org/2000/svg" width="318px" height="314px" viewBox="0 0 318 314" preserveAspectRatio="xMidYMid meet">
 <g fill="#88d8d4">
  <path d="M286.50 287.75 c-0.40 -0.10 -3.80 -0.45 -7.50 -0.75 -26.30 -2.35 -52.05 -12.85 -72.30 -29.50 -18.15 -14.95 -32.15 -33.40 -40.60 -53.50 -6.15 -14.70 -9.25 -28.45 -10.85 -48.10 l-0.35 -3.85 -3.30 -0.30 c-15 -1.35 -21.65 -2.35 -30.20 -4.50 -31.25 -7.95 -60.05 -28 -78.50 -54.75 -10.75 -15.50 -18.95 -35.20 -22.20 -53.25 -1.15 -6.20 -2.20 -16.05 -2.20 -20.55 l0 -4.10 10.15 -0.35 c10.70 -0.40 51.10 -0.20 51.50 0.25 0.15 0.15 0.75 3.20 1.35 6.75 2.85 17.60 8.45 30.65 18.20 42.35 6.20 7.45 16.95 14.85 27.75 19.15 5.65 2.25 16.35 5 22.65 5.85 2.50 0.30 4.85 0.90 5.20 1.30 0.60 0.55 0.70 5.85 0.70 30.30 l0 29.65 6.40 0.30 c3.50 0.20 17.40 0.35 30.90 0.35 l24.55 0 0.35 4.40 c2 24.60 14.10 45.10 34.45 58.35 10.25 6.65 21.75 10.45 34.95 11.50 l4.35 0.35 0.35 2.35 c0.50 3 0.50 57.95 0 59.45 -0.30 0.95 -0.70 1.10 -2.70 1.05 -1.30 -0.05 -2.70 -0.15 -3.10 -0.20z"/>
  <path d="M141.65 287 c-50.90 -3.95 -98.50 -41.55 -115.90 -91.60 -4.25 -12.25 -7.25 -29.40 -7.25 -41.65 l0 -2.70 2.15 -0.25 c4.10 -0.50 35.05 -0.80 47.55 -0.50 l12.65 0.35 0.35 3.55 c1.30 14.50 5.50 26.95 12.80 37.80 4.20 6.30 14.10 16.20 20.45 20.40 10.95 7.30 22.35 11.15 36.65 12.40 l3.90 0.35 0.35 1.80 c0.50 2.35 0.50 59.35 0.05 59.85 -0.60 0.55 -7.50 0.65 -13.75 0.20z"/>
  <path d="M277.50 150.70 c-32.70 -3.95 -61.20 -18 -83.75 -41.25 -19.20 -19.85 -32.45 -46.25 -36.75 -73.20 -1.05 -6.60 -1.60 -20.80 -0.85 -21.55 0.50 -0.55 43.35 -0.90 53.40 -0.45 l8.30 0.35 0.35 4.35 c1.05 12.80 5.55 26.25 11.95 35.80 13 19.30 32.85 31.35 55.10 33.50 1.65 0.15 3.95 0.40 5.15 0.55 l2.10 0.25 0 31.25 0 31.20 -4.60 -0.05 c-2.55 -0.05 -7.25 -0.40 -10.40 -0.75z"/>
 </g>
</svg>