<?xml version="1.0" encoding="utf-8"?>
<!DOCTYPE svg PUBLIC "-//W3C//DTD SVG 1.0//EN" "http://www.w3.org/TR/2001/REC-SVG-20010904/DTD/svg10.dtd">
<svg version="1.0" xmlns="http://www.w3.org/2000/svg" width="310px" height="306px" viewBox="0 0 310 306" preserveAspectRatio="xMidYMid meet">
 <g fill="#87d8d4">
  <path d="M147.50 291.15 c-10.40 -0.95 -13.75 -1.40 -20 -2.75 -36.95 -7.70 -68.40 -29.05 -89.45 -60.55 -12.35 -18.50 -20.55 -41.05 -22.80 -62.85 -8.10 -77.25 46.90 -146.25 124.25 -155.80 8.40 -1.05 24.30 -1.05 32.90 0 60.80 7.45 109.50 52.15 122.05 112.05 8.80 42.05 -2.35 86.20 -30.15 119.40 -20.30 24.20 -47.35 40.60 -78.30 47.40 -11.85 2.60 -29.05 4 -38.50 3.10z m24.70 -61.35 c21.35 -4.45 39.80 -16.85 51.60 -34.80 9.80 -14.90 14.25 -30.80 13.55 -48.25 -0.90 -22.40 -10.70 -43.45 -27 -57.80 -6.05 -5.35 -10.10 -8.15 -17.15 -11.75 -23.55 -12 -50.70 -12.10 -74.25 -0.25 -16.20 8.15 -28.45 20.55 -36.35 36.60 -11.05 22.50 -11.15 49.15 -0.30 71.75 11.20 23.40 34.05 40.80 58.70 44.70 2.05 0.30 4.10 0.65 4.50 0.75 0.40 0.10 5.70 0.10 11.75 0.05 7.70 -0.15 12.20 -0.40 14.95 -1z"/>
  <path d="M147.50 190.25 c-22.60 -4.60 -37.05 -27.55 -31.70 -50.25 1.10 -4.50 5.15 -12.65 8.20 -16.35 5.05 -6.20 12.40 -10.95 20.60 -13.35 22.50 -6.50 45.95 7.05 51.40 29.70 1.20 5.10 1.35 12.70 0.30 18.15 -3.65 19.10 -20.90 33 -40.75 32.80 -2.65 0 -6.25 -0.35 -8.05 -0.70z"/>
 </g>
</svg>