<?xml version="1.0" encoding="utf-8"?>
<!DOCTYPE svg PUBLIC "-//W3C//DTD SVG 1.0//EN" "http://www.w3.org/TR/2001/REC-SVG-20010904/DTD/svg10.dtd">
<svg version="1.0" xmlns="http://www.w3.org/2000/svg" width="372px" height="308px" viewBox="0 0 372 308" preserveAspectRatio="xMidYMid meet">
 <g fill="#87d8d4">
  <path d="M171.25 296.70 c-0.80 -0.10 -3.75 -0.45 -6.50 -0.75 -34.40 -3.90 -69 -22.05 -91.70 -48.20 -10.40 -11.95 -17.20 -22.25 -23.15 -35 -8.80 -18.75 -13.10 -35.65 -13.75 -53.85 l-0.30 -8.90 26.55 0 26.55 0 0.25 2.15 c0.15 1.15 0.50 4.45 0.80 7.35 2.55 23.10 12.70 43.30 29.70 58.95 19.30 17.75 42.25 26 68.55 24.55 19.55 -1.05 36.20 -7.15 51.60 -18.90 21.35 -16.25 34.20 -39.85 36.70 -67.20 l0.65 -6.90 26.45 0 26.50 0 -0.30 9.40 c-1.70 58.20 -44.85 113.35 -102.60 131.05 -14.95 4.55 -24.95 6.10 -41.50 6.30 -7.15 0.10 -13.65 0.10 -14.50 -0.05z"/>
  <path d="M176 157.15 c-5.55 -0.25 -16.50 -1.70 -22.65 -2.95 -59.45 -12.05 -105.65 -60.10 -115.85 -120.45 -0.60 -3.45 -1.15 -9.75 -1.35 -14.85 l-0.30 -8.90 26.55 0 26.55 0 0.25 2.15 c1.95 17.20 2.85 21.45 6.50 31.20 8.25 21.90 25.10 40.20 47.05 51.05 24.10 11.95 55.30 11.95 80.15 0.10 10 -4.80 17.25 -9.80 25.15 -17.35 16.80 -16.15 26.30 -36.15 28.50 -60.30 l0.65 -6.85 26.45 0 26.50 0 -0.30 9.35 c-0.50 18.50 -5.10 36.45 -13.85 54.40 -21.50 44.10 -61.75 74 -110 81.75 -5.15 0.80 -24.50 2.20 -26.25 1.90 -0.25 -0.05 -1.95 -0.15 -3.75 -0.25z"/>
 </g>
</svg>