<?xml version="1.0" encoding="utf-8"?>
<!DOCTYPE svg PUBLIC "-//W3C//DTD SVG 1.0//EN" "http://www.w3.org/TR/2001/REC-SVG-20010904/DTD/svg10.dtd">
<svg version="1.0" xmlns="http://www.w3.org/2000/svg" width="374px" height="288px" viewBox="0 0 374 288" preserveAspectRatio="xMidYMid meet">
 <g fill="#87d7d3">
  <path d="M146.45 276.30 c-5.40 -1.20 -12.45 -5.25 -16.25 -9.35 -8.75 -9.50 -11.20 -24.30 -5.95 -36.15 9.10 -20.55 35.50 -26.30 51.90 -11.25 5.75 5.25 8.70 10.30 10.40 17.95 1.15 5.20 1.20 7.85 0.20 12.60 -2.85 13.60 -12.20 23.40 -25 26.20 -3.70 0.80 -11.55 0.80 -15.30 0z"/>
  <path d="M277.75 276.25 c-14.70 -3.20 -25.25 -16.75 -25.25 -32.30 0 -20.75 19.30 -36.45 39.60 -32.20 12.70 2.70 22.95 13.10 25.60 26 1.35 6.45 0.80 12.40 -1.70 18.80 -3.90 9.90 -12.85 17.55 -23.15 19.75 -4.15 0.85 -11.05 0.85 -15.10 -0.05z"/>
  <path d="M216.30 211.40 c-7.60 -0.70 -13.60 -3.40 -19.10 -8.50 -8.75 -8.20 -12.55 -21.30 -9.50 -32.65 2.95 -10.90 11.15 -19.70 21.75 -23.35 4.50 -1.55 15.75 -1.65 20.05 -0.20 8.40 2.85 15.95 9.05 19.65 16.15 5.70 10.95 5 24.20 -1.85 34.40 -2.80 4.20 -4.60 6.05 -8.05 8.45 -7.25 4.95 -13.70 6.55 -22.95 5.70z"/>
  <path d="M81.50 210.75 c-6.05 -1.35 -10.65 -3.90 -15.40 -8.45 -10.25 -9.80 -13.15 -24.45 -7.40 -37.45 7.20 -16.25 26.60 -23.70 43.30 -16.60 11.50 4.85 18.35 14.65 19.75 28.30 0.85 7.90 -2.85 18.10 -9 24.90 -1.90 2.10 -7.70 6.05 -11.10 7.45 -5.80 2.45 -14.20 3.25 -20.15 1.85z"/>
  <path d="M146.40 145.30 c-9.20 -2.05 -17.80 -8.90 -21.85 -17.45 -10.05 -21.20 2.65 -44.55 26.15 -47.95 3.70 -0.50 4.85 -0.50 8.75 0.25 17.45 3.35 28.85 17.60 27.90 34.85 -0.75 14.45 -10.75 26.60 -24.85 30.25 -3.50 0.90 -12.05 0.90 -16.10 0.05z"/>
  <path d="M279.05 145.25 c-15.05 -2.75 -26.45 -16.55 -26.55 -32.10 -0.10 -22.60 21.95 -38.55 43.45 -31.40 7.20 2.45 12.35 6.30 16.50 12.50 2.80 4.10 4.25 7.65 5.30 12.65 0.95 4.70 0.95 8.10 -0.05 12.65 -1.55 6.90 -4.55 12.35 -9.40 16.95 -5.20 4.95 -10.10 7.55 -16.65 8.80 -4.50 0.85 -7.65 0.85 -12.60 -0.05z"/>
  <path d="M82.50 79.70 c-12.85 -2.80 -22.45 -11.80 -25.80 -24.30 -1.10 -4.05 -1.10 -11.55 -0.05 -16 2.45 -10.20 10.35 -19 20.50 -22.95 3.50 -1.35 4.90 -1.60 9.85 -1.80 6.55 -0.30 10.50 0.40 15.60 2.75 13.55 6.25 21.50 21.40 18.65 35.60 -2.75 13.85 -12.70 23.85 -26.45 26.70 -4.65 0.95 -7.90 0.95 -12.30 0z"/>
  <path d="M213.65 79.70 c-8.25 -1.80 -15.45 -6.55 -20.40 -13.45 -6.90 -9.60 -8.20 -21.40 -3.50 -31.95 5.45 -12.35 16.75 -19.80 30 -19.80 8.70 0 15.85 2.75 21.85 8.40 14.80 14 15.05 34.40 0.60 48.15 -8 7.60 -18.60 10.80 -28.55 8.65z"/>
 </g>
</svg>