<?xml version="1.0" encoding="utf-8"?>
<!DOCTYPE svg PUBLIC "-//W3C//DTD SVG 1.0//EN" "http://www.w3.org/TR/2001/REC-SVG-20010904/DTD/svg10.dtd">
<svg version="1.0" xmlns="http://www.w3.org/2000/svg" width="254px" height="252px" viewBox="0 0 254 252" preserveAspectRatio="xMidYMid meet">
 <g fill="black">
  <path d="M112.75 231.70 c-0.80 -0.10 -3.30 -0.45 -5.50 -0.75 -12.25 -1.60 -27.15 -6.50 -38.25 -12.60 -11 -6 -20.40 -13.15 -29.75 -22.55 -7.85 -7.95 -9.30 -10 -9.65 -13.25 -0.35 -3.70 0.85 -5.55 8.65 -13.30 15 -14.95 31.80 -25.45 50.85 -31.75 31.15 -10.30 64.35 -8 92.60 6.45 11.10 5.70 21.60 13.35 30.55 22.30 7.65 7.55 10.10 10.60 10.80 13.35 1.15 4.30 0.40 5.60 -8.50 14.45 -20.10 20.05 -42.20 31.65 -69.55 36.55 -4.55 0.80 -8.35 1.05 -18.25 1.15 -6.85 0.10 -13.15 0.05 -14 -0.05z m22 -16.45 c6.30 -1.30 11.75 -4.25 16.90 -9.10 14.45 -13.70 14.35 -35.35 -0.20 -49 -5.25 -4.90 -11.45 -8 -18.90 -9.40 -5.05 -1 -8.90 -0.90 -14.10 0.20 -16.95 3.75 -28.35 17.30 -28.45 33.65 -0.05 18.05 13.85 32.60 33 34.60 2.50 0.25 8.25 -0.20 11.75 -0.95z"/>
  <path d="M112.50 129.70 c-29.35 -3.60 -52.50 -14.95 -73.25 -35.95 -7.85 -7.90 -9.30 -9.95 -9.65 -13.20 -0.35 -3.70 0.85 -5.55 8.65 -13.30 20.50 -20.50 45.25 -33 73.50 -37.05 8.95 -1.30 24.85 -1.20 34 0.20 27.70 4.30 52.80 18 71.90 39.35 8.50 9.50 8.30 11 -3.30 22.50 -20.25 20.15 -42.50 31.70 -70.35 36.50 -4.60 0.80 -27.15 1.45 -31.50 0.95z m21.25 -16.25 c12.65 -2.25 24.15 -12.70 27.50 -25.05 4.50 -16.30 -4.60 -33.90 -20.90 -40.40 -7.55 -3.05 -14.45 -3.70 -21.90 -2.05 -17 3.80 -28.45 17.35 -28.45 33.80 0 13.95 8.50 26.20 22 31.75 6.50 2.65 13.90 3.30 21.75 1.95z"/>
 </g>
</svg>