<?xml version="1.0" encoding="utf-8"?>
<!DOCTYPE svg PUBLIC "-//W3C//DTD SVG 1.0//EN" "http://www.w3.org/TR/2001/REC-SVG-20010904/DTD/svg10.dtd">
<svg version="1.0" xmlns="http://www.w3.org/2000/svg" width="324px" height="286px" viewBox="0 0 324 286" preserveAspectRatio="xMidYMid meet">
 <g fill="#88d8d4">
  <path d="M155 276.15 c-18.90 -1.35 -35.30 -5.80 -51.55 -14.05 -18.40 -9.35 -33.70 -22.40 -46.35 -39.50 -15.05 -20.35 -25 -48.25 -24.50 -68.55 l0.15 -5.65 5 5.90 c10.25 12.15 23.45 24.55 34.55 32.55 18.75 13.50 41.90 22.90 65.90 26.75 11 1.75 37.60 1.20 51 -1.10 22.80 -3.90 46.85 -14.30 66.95 -29 14.55 -10.65 31.35 -27.20 36.50 -36 l1.35 -2.25 0 5.50 c-0.05 21.70 -7.75 45.60 -21.40 66.50 -14.05 21.55 -35.30 39.25 -58.85 49 -18.30 7.60 -40.05 11.25 -58.75 9.90z"/>
  <path d="M157.75 197.20 c-10.20 -1.45 -18 -4.30 -25.50 -9.35 -3.95 -2.65 -11.50 -10.25 -14.20 -14.30 -4.05 -5.90 -7.30 -13.95 -8.55 -20.85 -0.85 -4.80 -0.70 -15.85 0.25 -20.40 2.20 -10.60 7 -19.50 14.50 -27.10 9.20 -9.30 18.85 -14.10 32 -16 18.75 -2.70 38.60 5.75 50.30 21.50 8 10.75 12 24.95 10.50 37.70 -1.50 13.10 -6.65 23.80 -15.75 32.85 -8 8 -15.85 12.35 -26.80 14.80 -4.10 0.95 -13.70 1.60 -16.75 1.15z"/>
  <path d="M32.50 135.75 c0 -4 1.35 -14.55 2.50 -19.75 5.30 -23.75 17.25 -45.65 34.40 -62.90 20.15 -20.30 44.20 -32.75 72.60 -37.65 8 -1.35 25.85 -1.85 34.15 -0.95 45.60 4.90 83.40 31 104.20 72 7.20 14.15 11.35 28.40 12.65 43.25 0.60 7.40 0.60 7.90 0.05 7.65 -0.25 -0.05 -2.45 -2.60 -4.85 -5.65 -5.65 -7.05 -15.95 -17.60 -22.95 -23.45 -24.10 -20.20 -50.10 -31.95 -80.25 -36.15 -8.80 -1.20 -29.10 -1.20 -38.75 0.05 -31 3.95 -59 16.10 -84.70 36.70 -6 4.85 -17.35 15.85 -22.15 21.50 -2 2.35 -4.40 5.10 -5.25 6.05 l-1.60 1.80 -0.05 -2.50z"/>
 </g>
</svg>