<?xml version="1.0" encoding="utf-8"?>
<!DOCTYPE svg PUBLIC "-//W3C//DTD SVG 1.0//EN" "http://www.w3.org/TR/2001/REC-SVG-20010904/DTD/svg10.dtd">
<svg version="1.0" xmlns="http://www.w3.org/2000/svg" width="318px" height="284px" viewBox="0 0 318 284" preserveAspectRatio="xMidYMid meet">
 <g fill="#88d8d4">
  <path d="M156.25 252.95 c-37.45 -2.85 -66.60 -31.40 -71.05 -69.70 -1.60 -13.85 1.25 -29.05 7.95 -42.25 4.05 -7.95 7.90 -13.10 14.80 -20 11.45 -11.40 23.85 -18.15 39.80 -21.55 6.75 -1.45 20.85 -1.60 27.50 -0.30 18.50 3.65 33.90 12.30 45.40 25.60 11.15 12.85 17.20 27.20 18.90 44.95 0.90 9.20 -0.45 20.65 -3.60 30.30 -1.50 4.60 -6.40 14.75 -8.95 18.55 -13.35 19.75 -35.05 32.70 -57.25 34.20 -2.45 0.15 -5.30 0.35 -6.25 0.45 -0.95 0.05 -4.20 -0.05 -7.25 -0.25z m13.15 -39.70 c13.75 -2.60 24.90 -12.30 29.40 -25.50 1.80 -5.35 2.25 -14.25 0.95 -20.10 -2.95 -13.45 -12.20 -23.65 -25.65 -28.30 -5.65 -1.95 -13.90 -2.45 -19.60 -1.15 -14.30 3.25 -25.60 13.95 -29.35 27.80 -1.25 4.60 -1.20 15.05 0.10 19.50 2.70 9.45 7.65 16.50 15.15 21.60 8.75 5.95 18.80 8.05 29 6.15z"/>
 </g>
 <g fill="#1D2B52">
  <path d="M18.50 171.35 c0 -33.35 16.45 -70.20 42.80 -95.85 22.40 -21.80 49.25 -35.05 80.95 -39.80 7.60 -1.15 30.35 -1.30 37.75 -0.30 26.50 3.80 48.20 12.70 69.45 28.50 6.95 5.15 20.80 18.80 26.05 25.60 17.25 22.45 27.65 48.30 30.05 74.45 0.25 3.20 0.45 7.70 0.35 10.05 l-0.15 4.25 -25.85 0.15 -25.90 0.10 0 -1.45 c0 -3.05 -1.60 -14 -2.80 -19.30 -5.55 -24.40 -20.90 -45.10 -43.40 -58.50 -27.75 -16.50 -64.40 -16.20 -92.70 0.80 -16.80 10.15 -29.75 24.90 -37.25 42.45 -4.25 9.95 -7.35 23.80 -7.35 32.85 l0 2.60 -9.35 0.15 c-5.20 0.10 -16.90 0.25 -26 0.30 l-16.65 0.10 0 -7.15z"/>
 </g>
</svg>