<?xml version="1.0" encoding="utf-8"?>
<!DOCTYPE svg PUBLIC "-//W3C//DTD SVG 1.0//EN" "http://www.w3.org/TR/2001/REC-SVG-20010904/DTD/svg10.dtd">
<svg version="1.0" xmlns="http://www.w3.org/2000/svg" width="792px" height="220px" viewBox="0 0 792 220" preserveAspectRatio="xMidYMid meet">
 <g fill="black">
  <path d="M570.25 201.95 c-30.40 -3.05 -56.65 -11.55 -82.05 -26.70 -13.45 -8 -25.15 -17.20 -37.25 -29.25 -15.70 -15.70 -27.35 -31.80 -36.65 -50.75 -12.40 -25.20 -18.75 -50.10 -20.10 -78.85 l-0.35 -7.40 44.10 0.05 44.05 0.10 0 2.40 c0 3.85 0.95 12.25 2.05 17.95 8.65 44.85 46.10 79.40 91.55 84.45 2.70 0.30 6.45 0.55 8.40 0.55 l3.50 0 0 44 0 44 -6.60 -0.05 c-3.65 -0.05 -8.45 -0.25 -10.65 -0.50z"/>
  <path d="M763 201.95 c-39.40 -3.90 -73.75 -17.95 -104.75 -42.90 -12.60 -10.10 -27.35 -26.15 -37 -40.20 -20.95 -30.45 -33.15 -67.70 -33.90 -103.35 l-0.10 -6.25 43.80 -0.10 43.75 -0.05 0.65 7.55 c3.15 36.95 22.75 67.40 54.90 85.25 13.55 7.55 32.15 12.60 46.55 12.60 l3.60 0 0 44 0 44 -6.60 -0.05 c-3.65 -0.05 -8.55 -0.25 -10.90 -0.50z"/>
  <path d="M184.75 201.65 c-5.55 -0.35 -16.35 -1.80 -22.50 -2.95 -32.15 -6.20 -59.60 -19 -86.10 -40.10 -6.30 -5.05 -20.95 -19.45 -25.95 -25.60 -21.65 -26.40 -34.50 -53.20 -41.40 -86.25 -2.25 -10.80 -3.80 -24.65 -3.80 -34.05 l0 -4.20 44 0 44 0 0 3 c0 4.35 0.85 11.90 2.05 18 8.15 41.25 41.35 74.45 82.45 82.45 6.10 1.20 13.70 2.05 18 2.05 l3 0 0 44 0 44 -5.60 -0.10 c-3.10 -0.05 -6.75 -0.15 -8.15 -0.25z"/>
  <path d="M375.50 201.45 c-38.90 -3.30 -75.05 -17.80 -105.50 -42.25 -14.85 -11.95 -30.10 -28.85 -40.60 -44.95 -19.05 -29.20 -29.60 -62.35 -31.20 -98.10 l-0.35 -7.65 44.10 0 44.05 0 0 2.90 c0 7.40 2.05 19.55 4.80 28.45 10.20 33 36.15 59.05 69.15 69.40 8.80 2.75 20.85 4.75 28.55 4.75 l3 0 0 44 0 44 -5.60 -0.05 c-3.10 -0.05 -7.80 -0.25 -10.40 -0.50z"/>
 </g>
</svg>