<?xml version="1.0" encoding="utf-8"?>
<!DOCTYPE svg PUBLIC "-//W3C//DTD SVG 1.0//EN" "http://www.w3.org/TR/2001/REC-SVG-20010904/DTD/svg10.dtd">
<svg version="1.0" xmlns="http://www.w3.org/2000/svg" width="310px" height="306px" viewBox="0 0 310 306" preserveAspectRatio="xMidYMid meet">
 <g fill="#88d8d4">
  <path d="M148.30 289.75 c-3.90 -1.35 -6.70 -4.05 -7.75 -7.40 -0.70 -2.10 -0.50 -13.55 0.75 -38.60 0.40 -8.25 1.15 -25.55 1.70 -38.50 0.55 -12.90 1.25 -24.60 1.50 -26 0.60 -3.05 1.75 -4.65 4.30 -6.10 2.20 -1.25 3.75 -1.40 6.25 -0.60 3.75 1.25 4.70 3.10 5.40 10 0.80 7.80 2.90 47.60 3.85 73.70 0.90 25.35 0.90 25.60 -1.95 29.35 -3.20 4.20 -9.05 5.95 -14.05 4.15z"/>
  <path d="M59.60 253.45 c-2.15 -0.65 -5.45 -4 -6.70 -6.85 -0.55 -1.25 -1.15 -3.65 -1.30 -5.35 -0.45 -5.95 -0.75 -5.65 34.15 -37.10 8.55 -7.70 21.30 -19.30 28.40 -25.80 13.10 -11.95 16.35 -14.35 19.60 -14.35 1.95 0 4.60 1.70 6.15 4 3.30 4.90 2.35 6.65 -12.45 22.75 -7.90 8.55 -22.25 24.40 -47.55 52.45 -3.25 3.55 -6.80 7.10 -7.95 7.90 -3.80 2.55 -8.55 3.45 -12.35 2.35z"/>
  <path d="M237.15 253.30 c-1.15 -0.35 -2.85 -1.15 -3.80 -1.75 -1.65 -1 -12.50 -12.75 -41.35 -44.80 -6.45 -7.15 -15.15 -16.75 -19.30 -21.35 -8.05 -8.85 -9.60 -11.35 -9 -14.50 0.80 -4.15 4.65 -7.25 8.45 -6.75 2.85 0.40 5.95 2.70 16.60 12.40 5.25 4.75 18.95 17.20 30.50 27.65 25.05 22.70 31.50 28.90 32.90 31.55 1.50 2.80 1.50 8.20 0 11.05 -1.20 2.25 -3.75 4.70 -6.20 6 -2.15 1.10 -6.25 1.35 -8.80 0.50z"/>
  <path d="M22.20 164.30 c-9.30 -4.35 -9.75 -17.60 -0.70 -22.50 3.25 -1.75 6.15 -2.05 14.75 -1.35 7.20 0.55 29.90 1.60 54.50 2.55 33.70 1.25 37.80 1.65 40.15 4.15 3.60 3.80 3 9.80 -1.20 12.40 -2.30 1.40 -6.85 1.85 -30.95 2.95 -11.80 0.55 -30.10 1.45 -40.60 2 -10.55 0.55 -22.35 1 -26.25 1 -6.45 0 -7.40 -0.10 -9.70 -1.20z"/>
  <path d="M263.50 165.20 c-1.75 -0.25 -27.90 -1.50 -55.15 -2.70 -33 -1.45 -33.30 -1.50 -35.70 -5.80 -2.80 -4.95 0 -10.50 5.95 -11.65 1.45 -0.30 8.60 -0.75 15.90 -1.05 19.75 -0.80 55.60 -2.45 65 -3.05 4.55 -0.25 10.50 -0.60 13.25 -0.80 3.85 -0.20 5.65 -0.10 7.75 0.50 9.40 2.75 12.45 13.65 5.95 21 -2.90 3.30 -4.95 3.85 -14.15 3.80 -4.15 -0.05 -8.10 -0.15 -8.80 -0.25z"/>
  <path d="M130.25 140.90 c-2.95 -1.50 -4.60 -2.95 -32.25 -28.15 -13.90 -12.65 -29.20 -26.55 -34 -30.85 -9.55 -8.50 -10.50 -9.60 -11.70 -13.10 -2.85 -8.45 2.95 -16.80 11.70 -16.80 1.65 0 3.85 0.35 4.80 0.75 2.85 1.15 7.25 5.75 34.45 35.75 14.10 15.55 27.90 30.75 30.70 33.75 5.90 6.40 7.05 8.25 7.05 11.65 0 3.15 -2 6.10 -4.95 7.30 -2.65 1 -3.35 1 -5.80 -0.30z"/>
  <path d="M166.90 140 c-2.55 -2.10 -3.75 -5.35 -2.95 -8 0.85 -2.90 2.55 -4.90 22.30 -26.50 9.90 -10.85 23.70 -26.05 30.70 -33.75 14.20 -15.75 15.95 -17.50 18.80 -18.80 3.75 -1.70 9.45 -0.95 13 1.75 0.85 0.65 2.20 2.40 3 3.85 1.25 2.25 1.50 3.25 1.50 6.20 0 3 -0.20 3.90 -1.50 6.10 -1.65 2.85 -2.05 3.25 -30.50 28.90 -10.70 9.70 -25.10 22.70 -32 28.90 -6.85 6.25 -13.20 11.65 -14.10 12.10 -0.85 0.40 -2.65 0.75 -4 0.75 -1.95 0 -2.75 -0.30 -4.25 -1.50z"/>
  <path d="M150.75 133.50 c-3.40 -0.70 -5.50 -3.15 -6.30 -7.25 -0.25 -1.10 -0.75 -9.65 -1.20 -19 -0.40 -9.35 -1.20 -25.55 -1.75 -36 -1.85 -34.65 -2.10 -43.80 -1.25 -46.60 1.65 -5.55 6.25 -9.15 11.65 -9.15 4.25 0 6.55 0.90 9.40 3.75 4 4 3.95 3.55 3 30.15 -0.45 12.55 -1.05 27 -1.30 32.10 -0.25 5.10 -0.80 16.10 -1.25 24.50 -1.10 21.75 -1.60 24.45 -4.85 26.45 -1.55 0.95 -4.30 1.45 -6.15 1.05z"/>
 </g>
</svg>