<?xml version="1.0" standalone="no"?>
<!DOCTYPE svg PUBLIC "-//W3C//DTD SVG 20010904//EN"
 "http://www.w3.org/TR/2001/REC-SVG-20010904/DTD/svg10.dtd">
<svg version="1.0" xmlns="http://www.w3.org/2000/svg"
 width="900.000000pt" height="900.000000pt" viewBox="0 0 900.000000 900.000000"
 preserveAspectRatio="xMidYMid meet">
<circle cx="470" cy="440" r="350" fill="white"/>
<g transform="translate(0.000000,900.000000) scale(0.100000,-0.100000)"
fill="#0d27a2" stroke="none">
<path d="M4540 8490 c-25 -5 -68 -9 -97 -9 -122 -2 -571 -89 -703 -136 -19 -7
-69 -23 -110 -35 -41 -12 -84 -26 -95 -31 -11 -4 -45 -18 -75 -29 -30 -11 -66
-25 -80 -31 -185 -80 -330 -150 -402 -196 -21 -13 -40 -23 -44 -23 -8 0 -145
-84 -217 -133 -116 -80 -172 -120 -177 -127 -3 -4 -12 -11 -21 -16 -86 -48
-430 -371 -559 -524 -30 -36 -60 -69 -66 -75 -15 -14 -183 -239 -224 -300 -82
-123 -174 -285 -248 -436 -101 -209 -112 -234 -112 -252 0 -9 -4 -18 -9 -21
-4 -3 -18 -36 -30 -73 -12 -37 -26 -77 -31 -88 -4 -11 -18 -54 -30 -95 -12
-41 -27 -86 -32 -99 -5 -14 -13 -43 -18 -65 -5 -23 -17 -72 -25 -111 -9 -38
-21 -99 -26 -135 -6 -36 -14 -79 -19 -96 -45 -145 -61 -752 -27 -1043 10 -84
21 -161 26 -170 5 -9 11 -47 15 -86 4 -38 11 -83 16 -100 11 -37 57 -214 72
-275 5 -25 14 -49 19 -54 5 -6 9 -19 9 -30 0 -12 7 -34 15 -50 8 -15 15 -34
15 -42 0 -7 6 -28 14 -46 8 -18 22 -53 32 -78 10 -25 28 -69 41 -98 12 -29 34
-78 48 -110 32 -76 106 -216 155 -297 22 -36 40 -67 40 -70 0 -2 13 -23 28
-47 16 -24 46 -70 67 -103 147 -228 449 -566 689 -770 89 -75 324 -252 384
-288 77 -46 84 -50 112 -69 63 -42 342 -184 455 -233 17 -7 41 -18 55 -24 14
-6 50 -20 80 -31 30 -11 64 -25 75 -29 29 -13 112 -40 255 -82 19 -6 62 -17
95 -24 33 -8 101 -24 150 -35 108 -26 177 -37 310 -51 55 -5 129 -15 165 -20
133 -21 760 0 900 31 25 5 101 21 170 35 170 35 209 43 244 55 17 5 85 26 151
46 66 21 127 40 135 44 8 4 53 22 100 39 95 36 98 37 260 115 182 88 302 157
445 255 44 30 100 68 124 84 24 17 71 52 105 78 33 27 66 52 71 56 126 96 425
396 538 541 28 37 57 72 63 77 6 6 26 32 45 60 19 27 38 54 42 60 137 178 313
496 417 755 12 30 26 64 31 75 5 11 18 49 29 85 12 36 25 74 30 85 4 11 15 43
23 70 129 419 187 912 157 1323 -15 211 -59 502 -103 677 -9 33 -20 80 -26
105 -6 25 -15 54 -20 65 -4 11 -16 45 -25 75 -22 68 -73 213 -93 260 -46 112
-157 340 -211 435 -98 175 -304 468 -421 600 -90 101 -305 316 -397 394 -100
87 -298 241 -309 241 -3 0 -29 17 -58 39 -82 61 -310 192 -452 260 -163 78
-155 75 -320 138 -22 9 -54 22 -72 29 -17 8 -40 14 -50 14 -10 0 -23 4 -28 9
-6 5 -37 16 -70 25 -33 9 -103 28 -155 42 -52 15 -130 32 -173 40 -42 7 -81
15 -86 19 -11 6 -194 33 -321 46 -119 13 -596 19 -650 9z m-1115 -1560 c127
-22 187 -36 232 -56 17 -8 37 -14 44 -14 11 0 41 -13 169 -73 122 -58 314
-200 415 -308 131 -139 251 -335 303 -494 30 -91 50 -166 57 -207 3 -21 8 -38
11 -38 3 0 34 13 69 30 161 75 265 100 420 100 166 0 262 -24 423 -108 131
-67 237 -160 328 -288 25 -35 48 -64 50 -64 3 0 35 15 72 34 186 95 332 137
555 158 159 15 392 -7 527 -51 19 -7 51 -17 70 -23 19 -6 55 -19 80 -30 379
-164 655 -430 800 -773 12 -27 25 -59 30 -70 14 -33 38 -116 57 -195 27 -113
25 -455 -4 -560 -12 -44 -27 -76 -35 -78 -13 -3 -245 81 -315 113 -17 8 -36
15 -42 15 -6 0 -27 7 -48 16 -21 9 -47 20 -58 25 -11 4 -41 16 -66 27 l-46 20
0 153 c-1 115 -5 165 -17 199 -9 25 -16 52 -16 60 0 22 -60 140 -92 181 -15
20 -28 40 -28 44 0 13 -117 122 -162 152 -24 15 -45 30 -48 34 -10 12 -137 71
-190 89 -119 39 -156 45 -285 45 -155 0 -231 -17 -375 -82 -86 -39 -290 -206
-290 -238 0 -6 -10 -20 -21 -31 -44 -39 -110 -152 -164 -279 -22 -53 -53 -158
-66 -230 -17 -88 -17 -292 0 -365 48 -207 148 -372 299 -493 84 -67 250 -150
351 -176 90 -23 293 -29 366 -10 22 5 56 14 75 19 30 8 83 33 185 88 49 26
235 221 235 246 0 13 88 -1 113 -19 12 -8 31 -15 42 -15 12 0 25 -4 31 -8 5
-5 38 -20 74 -32 36 -13 76 -30 90 -37 14 -7 33 -13 42 -13 9 0 19 -4 23 -9 3
-5 19 -12 36 -16 17 -4 42 -13 57 -21 15 -8 34 -14 43 -14 22 0 53 -36 45 -52
-4 -7 -12 -22 -19 -33 -7 -11 -25 -43 -41 -70 -86 -145 -280 -337 -436 -432
-51 -31 -193 -103 -203 -103 -5 0 -23 -6 -40 -14 -60 -26 -122 -45 -167 -52
-25 -4 -52 -10 -61 -15 -36 -18 -309 -31 -417 -19 -184 19 -371 72 -505 141
-116 61 -196 107 -216 127 -8 8 -31 24 -52 37 -53 34 -229 210 -274 275 -21
30 -41 57 -45 60 -19 14 -142 254 -169 330 -39 108 -68 228 -81 335 -13 100
-13 315 0 420 25 209 112 459 222 643 33 53 38 71 38 121 0 128 -80 225 -214
261 -101 27 -221 -28 -289 -133 -25 -39 -54 -36 -174 19 -17 8 -34 14 -39 14
-7 0 -213 81 -271 106 -17 8 -36 14 -42 14 -6 0 -25 6 -43 14 -18 8 -49 21
-70 30 -20 9 -42 16 -50 16 -8 0 -18 4 -23 8 -6 4 -37 18 -70 31 -33 12 -67
26 -75 30 -12 7 -15 36 -16 158 -1 82 -6 158 -11 168 -6 11 -14 38 -18 60 -4
22 -18 63 -31 91 -13 28 -24 54 -24 57 0 19 -90 133 -148 188 -80 77 -135 115
-222 157 -181 86 -370 113 -550 77 -76 -15 -157 -40 -175 -55 -5 -4 -21 -11
-35 -15 -14 -4 -38 -17 -55 -29 -16 -13 -37 -25 -45 -28 -19 -7 -170 -137
-170 -146 0 -4 -19 -27 -41 -52 -21 -25 -45 -57 -52 -72 -6 -16 -14 -28 -17
-28 -5 0 -75 -135 -96 -185 -11 -29 -21 -60 -60 -190 -25 -86 -25 -364 0 -450
44 -149 79 -222 153 -318 59 -77 187 -184 265 -223 146 -74 184 -86 320 -109
90 -15 106 -15 205 0 109 16 165 31 218 59 17 9 33 16 38 16 10 0 95 59 151
105 25 20 71 70 102 111 31 41 62 75 68 75 23 3 47 -3 74 -17 15 -7 34 -14 42
-14 9 0 20 -4 25 -8 10 -8 65 -30 195 -77 41 -15 94 -36 117 -46 23 -11 46
-19 51 -19 9 0 43 -16 70 -33 10 -7 6 -20 -15 -60 -116 -220 -326 -427 -552
-544 -36 -19 -70 -38 -76 -43 -5 -4 -21 -11 -35 -14 -14 -4 -34 -11 -45 -16
-128 -53 -379 -100 -533 -100 -158 0 -412 56 -568 125 -104 46 -127 59 -214
114 -338 216 -544 503 -655 911 -38 139 -52 423 -31 600 l8 65 -51 23 c-28 12
-57 22 -64 22 -6 0 -23 9 -36 19 -24 18 -24 20 -9 52 9 19 24 57 34 84 10 28
24 61 31 75 7 14 13 33 13 42 0 9 4 19 9 23 5 3 13 20 17 37 3 18 10 39 15 48
14 24 79 196 79 208 0 7 33 10 93 9 118 -2 130 4 247 143 58 69 201 209 228
224 10 5 35 23 56 40 37 28 213 136 223 136 5 0 92 38 113 49 9 5 31 12 50 16
19 4 40 11 45 15 15 11 97 30 210 50 138 24 323 24 460 0z m-345 -1144 c101
-48 164 -124 195 -234 44 -154 -37 -326 -188 -400 -58 -29 -73 -32 -157 -32
-87 0 -97 2 -154 34 -144 81 -213 218 -187 371 16 90 43 138 116 207 31 29
100 66 150 79 56 15 166 3 225 -25z m3499 -1342 c186 -65 291 -260 234 -437
-43 -135 -145 -224 -282 -246 -115 -19 -218 15 -301 99 -78 77 -95 124 -95
255 1 108 1 111 35 165 53 84 97 121 195 161 51 22 157 23 214 3z"/>
</g>
</svg>
